<svg width="37" height="52" viewBox="0 0 37 52" fill="none" xmlns="http://www.w3.org/2000/svg">
<path d="M13.275 15.4999H18.875M18.875 15.4999H24.475M18.875 15.4999V9.8999M18.875 15.4999V21.0999" stroke="#3D3D3D" stroke-width="2" stroke-linecap="round" stroke-linejoin="round"/>
<path d="M18.875 29.5C26.6069 29.5 32.875 23.2319 32.875 15.5C32.875 7.76801 26.6069 1.5 18.875 1.5C11.143 1.5 4.875 7.76801 4.875 15.5C4.875 23.2319 11.143 29.5 18.875 29.5Z" stroke="#3D3D3D" stroke-width="2" stroke-linecap="round" stroke-linejoin="round"/>
<path d="M2.345 41.51V45.91C2.345 46.6033 2.50833 47.1167 2.835 47.45C3.16833 47.7833 3.62167 47.95 4.195 47.95C4.76833 47.95 5.215 47.7867 5.535 47.46C5.86167 47.1267 6.025 46.61 6.025 45.91V41.51H6.725V45.9C6.725 46.7867 6.48833 47.4533 6.015 47.9C5.54833 48.3467 4.93833 48.57 4.185 48.57C3.43167 48.57 2.81833 48.3467 2.345 47.9C1.87833 47.4533 1.645 46.7867 1.645 45.9V41.51H2.345ZM8.97633 44.24C9.14966 43.8733 9.42299 43.57 9.79633 43.33C10.1763 43.0833 10.6263 42.96 11.1463 42.96C11.6397 42.96 12.083 43.0767 12.4763 43.31C12.8763 43.5367 13.1863 43.8633 13.4063 44.29C13.633 44.71 13.7463 45.2 13.7463 45.76C13.7463 46.32 13.633 46.8133 13.4063 47.24C13.1863 47.6667 12.8763 47.9967 12.4763 48.23C12.083 48.4633 11.6397 48.58 11.1463 48.58C10.633 48.58 10.1863 48.46 9.80633 48.22C9.42633 47.9733 9.14966 47.6667 8.97633 47.3V51.08H8.28633V43.04H8.97633V44.24ZM13.0363 45.76C13.0363 45.3067 12.9463 44.9167 12.7663 44.59C12.593 44.2567 12.353 44.0033 12.0463 43.83C11.7397 43.6567 11.393 43.57 11.0063 43.57C10.633 43.57 10.2897 43.66 9.97633 43.84C9.66966 44.02 9.42633 44.2767 9.24633 44.61C9.06633 44.9433 8.97633 45.33 8.97633 45.77C8.97633 46.21 9.06633 46.5967 9.24633 46.93C9.42633 47.2633 9.66966 47.52 9.97633 47.7C10.2897 47.88 10.633 47.97 11.0063 47.97C11.393 47.97 11.7397 47.8833 12.0463 47.71C12.353 47.53 12.593 47.2733 12.7663 46.94C12.9463 46.6 13.0363 46.2067 13.0363 45.76ZM15.7344 41.1V48.5H15.0344V41.1H15.7344ZM19.7095 48.58C19.1962 48.58 18.7329 48.4667 18.3195 48.24C17.9129 48.0067 17.5895 47.68 17.3495 47.26C17.1162 46.8333 16.9995 46.3367 16.9995 45.77C16.9995 45.2033 17.1195 44.71 17.3595 44.29C17.5995 43.8633 17.9262 43.5367 18.3395 43.31C18.7529 43.0767 19.2162 42.96 19.7295 42.96C20.2429 42.96 20.7062 43.0767 21.1195 43.31C21.5395 43.5367 21.8662 43.8633 22.0995 44.29C22.3395 44.71 22.4595 45.2033 22.4595 45.77C22.4595 46.33 22.3395 46.8233 22.0995 47.25C21.8595 47.6767 21.5295 48.0067 21.1095 48.24C20.6895 48.4667 20.2229 48.58 19.7095 48.58ZM19.7095 47.97C20.0695 47.97 20.4029 47.89 20.7095 47.73C21.0162 47.5633 21.2629 47.3167 21.4495 46.99C21.6429 46.6567 21.7395 46.25 21.7395 45.77C21.7395 45.29 21.6462 44.8867 21.4595 44.56C21.2729 44.2267 21.0262 43.98 20.7195 43.82C20.4129 43.6533 20.0795 43.57 19.7195 43.57C19.3595 43.57 19.0262 43.6533 18.7195 43.82C18.4129 43.98 18.1662 44.2267 17.9795 44.56C17.7995 44.8867 17.7095 45.29 17.7095 45.77C17.7095 46.25 17.7995 46.6567 17.9795 46.99C18.1662 47.3167 18.4095 47.5633 18.7095 47.73C19.0162 47.89 19.3495 47.97 19.7095 47.97ZM23.4155 45.76C23.4155 45.2 23.5255 44.71 23.7455 44.29C23.9722 43.8633 24.2822 43.5367 24.6755 43.31C25.0755 43.0767 25.5255 42.96 26.0255 42.96C26.5455 42.96 26.9922 43.08 27.3655 43.32C27.7455 43.56 28.0189 43.8667 28.1855 44.24V43.04H28.8855V48.5H28.1855V47.29C28.0122 47.6633 27.7355 47.9733 27.3555 48.22C26.9822 48.46 26.5355 48.58 26.0155 48.58C25.5222 48.58 25.0755 48.4633 24.6755 48.23C24.2822 47.9967 23.9722 47.6667 23.7455 47.24C23.5255 46.8133 23.4155 46.32 23.4155 45.76ZM28.1855 45.77C28.1855 45.33 28.0955 44.9433 27.9155 44.61C27.7355 44.2767 27.4889 44.02 27.1755 43.84C26.8689 43.66 26.5289 43.57 26.1555 43.57C25.7689 43.57 25.4222 43.6567 25.1155 43.83C24.8089 44.0033 24.5655 44.2567 24.3855 44.59C24.2122 44.9167 24.1255 45.3067 24.1255 45.76C24.1255 46.2067 24.2122 46.6 24.3855 46.94C24.5655 47.2733 24.8089 47.53 25.1155 47.71C25.4222 47.8833 25.7689 47.97 26.1555 47.97C26.5289 47.97 26.8689 47.88 27.1755 47.7C27.4889 47.52 27.7355 47.2633 27.9155 46.93C28.0955 46.5967 28.1855 46.21 28.1855 45.77ZM30.1636 45.76C30.1636 45.2 30.2769 44.71 30.5036 44.29C30.7303 43.8633 31.0403 43.5367 31.4336 43.31C31.8336 43.0767 32.2836 42.96 32.7836 42.96C33.2636 42.96 33.6969 43.0767 34.0836 43.31C34.4703 43.5433 34.7536 43.8467 34.9336 44.22V41.1H35.6336V48.5H34.9336V47.28C34.7669 47.66 34.4936 47.9733 34.1136 48.22C33.7336 48.46 33.2869 48.58 32.7736 48.58C32.2736 48.58 31.8236 48.4633 31.4236 48.23C31.0303 47.9967 30.7203 47.6667 30.4936 47.24C30.2736 46.8133 30.1636 46.32 30.1636 45.76ZM34.9336 45.77C34.9336 45.33 34.8436 44.9433 34.6636 44.61C34.4836 44.2767 34.2369 44.02 33.9236 43.84C33.6169 43.66 33.2769 43.57 32.9036 43.57C32.5169 43.57 32.1703 43.6567 31.8636 43.83C31.5569 44.0033 31.3136 44.2567 31.1336 44.59C30.9603 44.9167 30.8736 45.3067 30.8736 45.76C30.8736 46.2067 30.9603 46.6 31.1336 46.94C31.3136 47.2733 31.5569 47.53 31.8636 47.71C32.1703 47.8833 32.5169 47.97 32.9036 47.97C33.2769 47.97 33.6169 47.88 33.9236 47.7C34.2369 47.52 34.4836 47.2633 34.6636 46.93C34.8436 46.5967 34.9336 46.21 34.9336 45.77Z" fill="#3D3D3D"/>
</svg>
