<svg width="19" height="18" viewBox="0 0 19 18" fill="none" xmlns="http://www.w3.org/2000/svg">
<path d="M5.9375 5.25C5.9375 3.285 7.535 1.6875 9.5 1.6875C11.465 1.6875 13.0625 3.285 13.0625 5.25C13.0625 7.215 11.465 8.8125 9.5 8.8125C7.535 8.8125 5.9375 7.215 5.9375 5.25ZM12.3125 15.1875H11.75C10.82 15.1875 10.0625 14.43 10.0625 13.5C10.0625 12.57 10.82 11.8125 11.75 11.8125H12.3125V11.25C12.3125 10.7925 12.4925 10.38 12.7925 10.0725C12.455 9.9825 12.11 9.9375 11.75 9.9375H7.25C4.8725 9.9375 2.9375 11.8725 2.9375 14.25C2.9375 15.39 3.86 16.3125 5 16.3125H12.41C12.35 16.14 12.3125 15.945 12.3125 15.75V15.1875ZM15.6875 15.435C15.74 15.3525 15.7925 15.2775 15.8375 15.1875H15.6875V15.435ZM16.25 12.9375H14.5625V11.25C14.5625 10.9395 14.3105 10.6875 14 10.6875C13.6895 10.6875 13.4375 10.9395 13.4375 11.25V12.9375H11.75C11.4395 12.9375 11.1875 13.1895 11.1875 13.5C11.1875 13.8105 11.4395 14.0625 11.75 14.0625H13.4375V15.75C13.4375 16.0605 13.6895 16.3125 14 16.3125C14.3105 16.3125 14.5625 16.0605 14.5625 15.75V14.0625H16.25C16.5605 14.0625 16.8125 13.8105 16.8125 13.5C16.8125 13.1895 16.5605 12.9375 16.25 12.9375Z" fill="#F6F6F6"/>
</svg>
