<svg width="34" height="46" viewBox="0 0 34 46" fill="none" xmlns="http://www.w3.org/2000/svg">
<path d="M16.9375 26V4.125C16.9375 2.39911 18.3366 1 20.0625 1H31.625C32.1428 1 32.5625 1.41973 32.5625 1.9375V22.4286" stroke="#3D3D3D" stroke-width="2" stroke-linecap="round"/>
<path d="M16.9375 26V4.125C16.9375 2.39911 15.5384 1 13.8125 1H2.25C1.73223 1 1.3125 1.41973 1.3125 1.9375V22.4286" stroke="#3D3D3D" stroke-width="2" stroke-linecap="round"/>
<path d="M20.0625 22.875H32.5625" stroke="#3D3D3D" stroke-width="2" stroke-linecap="round"/>
<path d="M13.8125 22.875H1.3125" stroke="#3D3D3D" stroke-width="2" stroke-linecap="round"/>
<path d="M16.9375 26C16.9375 24.2741 18.3366 22.875 20.0625 22.875" stroke="#3D3D3D" stroke-width="2" stroke-linecap="round" stroke-linejoin="round"/>
<path d="M16.9375 26C16.9375 24.2741 15.5384 22.875 13.8125 22.875" stroke="#3D3D3D" stroke-width="2" stroke-linecap="round" stroke-linejoin="round"/>
<path d="M6.7875 43.34H3.6075L2.9975 45H2.2575L4.8075 38.1H5.5975L8.1375 45H7.3975L6.7875 43.34ZM6.5775 42.76L5.1975 38.98L3.8175 42.76H6.5775ZM9.96094 40.51C10.1143 40.17 10.3476 39.9067 10.6609 39.72C10.9809 39.5333 11.3709 39.44 11.8309 39.44V40.17H11.6409C11.1343 40.17 10.7276 40.3067 10.4209 40.58C10.1143 40.8533 9.96094 41.31 9.96094 41.95V45H9.26094V39.54H9.96094V40.51ZM13.794 40.13V43.52C13.794 43.8533 13.8573 44.0833 13.984 44.21C14.1107 44.3367 14.334 44.4 14.654 44.4H15.294V45H14.544C14.0507 45 13.684 44.8867 13.444 44.66C13.204 44.4267 13.084 44.0467 13.084 43.52V40.13H12.324V39.54H13.084V38.17H13.794V39.54H15.294V40.13H13.794ZM16.7984 38.51C16.6584 38.51 16.5384 38.46 16.4384 38.36C16.3384 38.26 16.2884 38.1367 16.2884 37.99C16.2884 37.8433 16.3384 37.7233 16.4384 37.63C16.5384 37.53 16.6584 37.48 16.7984 37.48C16.9384 37.48 17.0584 37.53 17.1584 37.63C17.2584 37.7233 17.3084 37.8433 17.3084 37.99C17.3084 38.1367 17.2584 38.26 17.1584 38.36C17.0584 38.46 16.9384 38.51 16.7984 38.51ZM17.1484 39.54V45H16.4484V39.54H17.1484ZM21.6836 45L19.4336 42.55V45H18.7336V37.6H19.4336V41.98L21.6336 39.54H22.6136L20.0236 42.26L22.6336 45H21.6836ZM28.4783 41.99C28.4783 42.23 28.4716 42.4133 28.4583 42.54H23.9283C23.9483 42.9533 24.0483 43.3067 24.2283 43.6C24.4083 43.8933 24.6449 44.1167 24.9383 44.27C25.2316 44.4167 25.5516 44.49 25.8983 44.49C26.3516 44.49 26.7316 44.38 27.0383 44.16C27.3516 43.94 27.5583 43.6433 27.6583 43.27H28.3983C28.2649 43.8033 27.9783 44.24 27.5383 44.58C27.1049 44.9133 26.5583 45.08 25.8983 45.08C25.3849 45.08 24.9249 44.9667 24.5183 44.74C24.1116 44.5067 23.7916 44.18 23.5583 43.76C23.3316 43.3333 23.2183 42.8367 23.2183 42.27C23.2183 41.7033 23.3316 41.2067 23.5583 40.78C23.7849 40.3533 24.1016 40.0267 24.5083 39.8C24.9149 39.5733 25.3783 39.46 25.8983 39.46C26.4183 39.46 26.8716 39.5733 27.2583 39.8C27.6516 40.0267 27.9516 40.3333 28.1583 40.72C28.3716 41.1 28.4783 41.5233 28.4783 41.99ZM27.7683 41.97C27.7749 41.5633 27.6916 41.2167 27.5183 40.93C27.3516 40.6433 27.1216 40.4267 26.8283 40.28C26.5349 40.1333 26.2149 40.06 25.8683 40.06C25.3483 40.06 24.9049 40.2267 24.5383 40.56C24.1716 40.8933 23.9683 41.3633 23.9283 41.97H27.7683ZM30.459 37.6V45H29.759V37.6H30.459Z" fill="#3D3D3D"/>
</svg>
