<svg width="25" height="25" viewBox="0 0 25 25" fill="none" xmlns="http://www.w3.org/2000/svg">
<path d="M17.1875 2.34375H7.8125C6.95246 2.38235 6.14225 2.7582 5.55734 3.3899C4.97243 4.0216 4.65993 4.85829 4.6875 5.71875V21.875C4.68753 22.0106 4.72283 22.1438 4.78995 22.2616C4.85707 22.3794 4.95369 22.4777 5.07032 22.5469C5.18908 22.6154 5.3238 22.6515 5.46094 22.6515C5.59808 22.6515 5.7328 22.6154 5.85157 22.5469L12.5 18.8594L19.1484 22.5547C19.2652 22.6209 19.397 22.6558 19.5313 22.6562C19.6715 22.6562 19.8091 22.6184 19.9297 22.5469C20.0463 22.4777 20.1429 22.3794 20.2101 22.2616C20.2772 22.1438 20.3125 22.0106 20.3125 21.875V5.71875C20.3401 4.85829 20.0276 4.0216 19.4427 3.3899C18.8578 2.7582 18.0475 2.38235 17.1875 2.34375ZM18.75 20.5469L12.8828 17.2891C12.7641 17.2205 12.6293 17.1844 12.4922 17.1844C12.3551 17.1844 12.2203 17.2205 12.1016 17.2891L6.25 20.5469V5.70313C6.22804 5.25982 6.37842 4.8252 6.66967 4.49027C6.96092 4.15533 7.37044 3.94606 7.8125 3.90625H17.1875C17.6324 3.94609 18.0443 4.15758 18.336 4.49591C18.6277 4.83424 18.7761 5.27282 18.75 5.71875V20.5469Z" fill="#3D3D3D"/>
</svg>
