<svg width="30" height="30" viewBox="0 0 30 30" fill="none" xmlns="http://www.w3.org/2000/svg">
<path d="M20.6249 2.8125H9.37494C8.34289 2.85882 7.37064 3.30984 6.66875 4.06788C5.96686 4.82591 5.59185 5.82994 5.62494 6.8625V26.25C5.62497 26.4127 5.66734 26.5726 5.74788 26.7139C5.82843 26.8553 5.94437 26.9733 6.08432 27.0563C6.22684 27.1385 6.3885 27.1819 6.55307 27.1819C6.71763 27.1819 6.8793 27.1385 7.02182 27.0563L14.9999 22.6312L22.9781 27.0656C23.1182 27.145 23.2764 27.187 23.4374 27.1875C23.6057 27.1875 23.7709 27.1421 23.9156 27.0563C24.0555 26.9733 24.1715 26.8553 24.252 26.7139C24.3325 26.5726 24.3749 26.4127 24.3749 26.25V6.8625C24.408 5.82994 24.033 4.82591 23.3311 4.06788C22.6292 3.30984 21.657 2.85882 20.6249 2.8125ZM22.4999 24.6562L15.4593 20.7469C15.3168 20.6646 15.1551 20.6213 14.9906 20.6213C14.826 20.6213 14.6643 20.6646 14.5218 20.7469L7.49994 24.6562V6.84375C7.47359 6.31178 7.65405 5.79024 8.00354 5.38832C8.35304 4.9864 8.84447 4.73527 9.37494 4.6875H20.6249C21.1588 4.73531 21.6531 4.9891 22.0031 5.39509C22.3531 5.80109 22.5313 6.32739 22.4999 6.8625V24.6562Z" fill="white"/>
</svg>
