<svg width="25" height="25" viewBox="0 0 25 25" fill="none" xmlns="http://www.w3.org/2000/svg">
<g clip-path="url(#clip0_1111_1084)">
<path d="M8.82812 16.9688C9.42469 16.4447 9.84736 15.7512 10.0398 14.9808C10.2322 14.2104 10.1853 13.3996 9.90528 12.6566C9.62525 11.9135 9.12539 11.2734 8.47235 10.8217C7.8193 10.3699 7.04408 10.1279 6.25 10.1279C5.45592 10.1279 4.6807 10.3699 4.02765 10.8217C3.37461 11.2734 2.87476 11.9135 2.59472 12.6566C2.31468 13.3996 2.26775 14.2104 2.4602 14.9808C2.65264 15.7512 3.07531 16.4447 3.67187 16.9688C2.57823 17.464 1.65036 18.2637 0.999203 19.2723C0.348043 20.2809 0.00114989 21.4557 0 22.6562L0 23.4375C0 23.6447 0.08231 23.8434 0.228823 23.9899C0.375336 24.1364 0.57405 24.2188 0.78125 24.2188H3.125C3.3322 24.2188 3.53091 24.1364 3.67743 23.9899C3.82394 23.8434 3.90625 23.6447 3.90625 23.4375C3.90625 23.2303 3.82394 23.0316 3.67743 22.8851C3.53091 22.7386 3.3322 22.6562 3.125 22.6562H1.5625C1.5625 21.413 2.05636 20.2208 2.93544 19.3417C3.81451 18.4626 5.0068 17.9688 6.25 17.9688C7.4932 17.9688 8.68549 18.4626 9.56456 19.3417C10.4436 20.2208 10.9375 21.413 10.9375 22.6562H6.25C6.0428 22.6562 5.84409 22.7386 5.69757 22.8851C5.55106 23.0316 5.46875 23.2303 5.46875 23.4375C5.46875 23.6447 5.55106 23.8434 5.69757 23.9899C5.84409 24.1364 6.0428 24.2188 6.25 24.2188H11.7188C11.926 24.2188 12.1247 24.1364 12.2712 23.9899C12.4177 23.8434 12.5 23.6447 12.5 23.4375V22.6562C12.4988 21.4557 12.152 20.2809 11.5008 19.2723C10.8496 18.2637 9.92177 17.464 8.82812 16.9688ZM3.90625 14.0625C3.90625 13.599 4.04371 13.1458 4.30124 12.7604C4.55878 12.375 4.92482 12.0745 5.35309 11.8972C5.78135 11.7198 6.2526 11.6734 6.70724 11.7638C7.16189 11.8542 7.5795 12.0774 7.90728 12.4052C8.23506 12.733 8.45828 13.1506 8.54872 13.6053C8.63915 14.0599 8.59274 14.5311 8.41534 14.9594C8.23795 15.3877 7.93755 15.7537 7.55212 16.0113C7.16669 16.2688 6.71355 16.4062 6.25 16.4062C5.6284 16.4062 5.03226 16.1593 4.59272 15.7198C4.15318 15.2802 3.90625 14.6841 3.90625 14.0625ZM22.6562 0.78125H13.2812C12.6596 0.78125 12.0635 1.02818 11.624 1.46772C11.1844 1.90726 10.9375 2.5034 10.9375 3.125V7.8125C10.9375 8.4341 11.1844 9.03024 11.624 9.46978C12.0635 9.90932 12.6596 10.1562 13.2812 10.1562V11.7188C13.2812 11.8638 13.3217 12.0061 13.3979 12.1295C13.4742 12.2529 13.5833 12.3526 13.7131 12.4175C13.8429 12.4824 13.9882 12.5099 14.1327 12.4968C14.2772 12.4838 14.4152 12.4308 14.5312 12.3438L17.4453 10.1562H22.6562C23.2779 10.1562 23.874 9.90932 24.3135 9.46978C24.7531 9.03024 25 8.4341 25 7.8125V3.125C25 2.5034 24.7531 1.90726 24.3135 1.46772C23.874 1.02818 23.2779 0.78125 22.6562 0.78125ZM23.4375 7.8125C23.4375 8.0197 23.3552 8.21841 23.2087 8.36493C23.0622 8.51144 22.8635 8.59375 22.6562 8.59375H17.1875C16.8438 8.59375 16.8906 8.59375 14.8438 10.1562V9.375C14.8438 9.1678 14.7614 8.96909 14.6149 8.82257C14.4684 8.67606 14.2697 8.59375 14.0625 8.59375H13.2812C13.074 8.59375 12.8753 8.51144 12.7288 8.36493C12.5823 8.21841 12.5 8.0197 12.5 7.8125V3.125C12.5 2.9178 12.5823 2.71909 12.7288 2.57257C12.8753 2.42606 13.074 2.34375 13.2812 2.34375H22.6562C22.8635 2.34375 23.0622 2.42606 23.2087 2.57257C23.3552 2.71909 23.4375 2.9178 23.4375 3.125V7.8125Z" fill="#3D3D3D"/>
<path d="M14.8438 6.25C14.6892 6.25 14.5382 6.20418 14.4097 6.11834C14.2812 6.03249 14.1811 5.91048 14.122 5.76772C14.0628 5.62497 14.0474 5.46788 14.0775 5.31634C14.1077 5.16479 14.1821 5.02558 14.2913 4.91632C14.4006 4.80706 14.5398 4.73266 14.6913 4.70251C14.8429 4.67237 15 4.68784 15.1427 4.74697C15.2855 4.8061 15.4075 4.90624 15.4933 5.03471C15.5792 5.16319 15.625 5.31423 15.625 5.46875C15.625 5.67595 15.5427 5.87466 15.3962 6.02118C15.2497 6.16769 15.051 6.25 14.8438 6.25ZM17.9688 6.25C17.8142 6.25 17.6632 6.20418 17.5347 6.11834C17.4062 6.03249 17.3061 5.91048 17.247 5.76772C17.1878 5.62497 17.1724 5.46788 17.2025 5.31634C17.2327 5.16479 17.3071 5.02558 17.4163 4.91632C17.5256 4.80706 17.6648 4.73266 17.8163 4.70251C17.9679 4.67237 18.125 4.68784 18.2677 4.74697C18.4105 4.8061 18.5325 4.90624 18.6183 5.03471C18.7042 5.16319 18.75 5.31423 18.75 5.46875C18.75 5.67595 18.6677 5.87466 18.5212 6.02118C18.3747 6.16769 18.176 6.25 17.9688 6.25ZM21.0938 6.25C20.9392 6.25 20.7882 6.20418 20.6597 6.11834C20.5312 6.03249 20.4311 5.91048 20.372 5.76772C20.3128 5.62497 20.2974 5.46788 20.3275 5.31634C20.3577 5.16479 20.4321 5.02558 20.5413 4.91632C20.6506 4.80706 20.7898 4.73266 20.9413 4.70251C21.0929 4.67237 21.25 4.68784 21.3927 4.74697C21.5355 4.8061 21.6575 4.90624 21.7433 5.03471C21.8292 5.16319 21.875 5.31423 21.875 5.46875C21.875 5.67595 21.7927 5.87466 21.6462 6.02118C21.4997 6.16769 21.301 6.25 21.0938 6.25Z" fill="#7E7E7E"/>
</g>
<defs>
<clipPath id="clip0_1111_1084">
<rect width="25" height="25" fill="white"/>
</clipPath>
</defs>
</svg>
