<svg width="100" height="100" viewBox="0 0 100 100" fill="none" xmlns="http://www.w3.org/2000/svg">
<g clip-path="url(#clip0_1160_7070)">
<path fill-rule="evenodd" clip-rule="evenodd" d="M50 0C77.6143 0 100 22.3857 100 50C100 77.6143 77.6143 100 50 100C22.3857 100 0 77.6143 0 50C0 22.3857 22.3857 0 50 0Z" fill="#F5615D"/>
<mask id="mask0_1160_7070" style="mask-type:luminance" maskUnits="userSpaceOnUse" x="0" y="0" width="100" height="100">
<path fill-rule="evenodd" clip-rule="evenodd" d="M50 0C77.6143 0 100 22.3857 100 50C100 77.6143 77.6143 100 50 100C22.3857 100 0 77.6143 0 50C0 22.3857 22.3857 0 50 0Z" fill="white"/>
</mask>
<g mask="url(#mask0_1160_7070)">
<path fill-rule="evenodd" clip-rule="evenodd" d="M55.9687 25.8191L182.178 152.028L182.387 152.249L182.593 152.479L182.796 152.717L182.994 152.964L183.189 153.22L183.38 153.485L183.566 153.758L183.748 154.04L57.539 27.8308L57.357 27.5488L57.1707 27.2758L56.98 27.0111L56.7854 26.7554L56.587 26.5084L56.3844 26.2701L56.1784 26.0401L55.9687 25.8191Z" fill="#C74E4C"/>
<path fill-rule="evenodd" clip-rule="evenodd" d="M57.5391 27.8308L183.748 154.04L201.267 181.909L75.0581 55.6995L57.5391 27.8308Z" fill="#C74E4C"/>
<path fill-rule="evenodd" clip-rule="evenodd" d="M75.058 55.6995L201.267 181.909L201.45 182.207L201.63 182.514L201.807 182.829L201.98 183.151L202.148 183.481L202.313 183.817L202.473 184.159L202.63 184.507L202.781 184.861L202.928 185.22L203.07 185.584L203.207 185.952L203.338 186.325L203.465 186.701L203.586 187.081L203.701 187.463L203.811 187.849L203.914 188.236L204.012 188.626L204.103 189.017L204.188 189.41L204.266 189.803L204.338 190.197L204.402 190.59L204.46 190.984L204.51 191.377L204.553 191.769L204.589 192.16L204.617 192.549L204.637 192.936L204.649 193.32L204.654 193.702L78.4447 67.4928L78.4407 67.1111L78.4284 66.7268L78.408 66.3398L78.3804 65.9508L78.3444 65.5601L78.3014 65.1681L78.251 64.7751L78.1934 64.3815L78.1287 63.9878L78.057 63.5938L77.979 63.2008L77.894 62.8081L77.8027 62.4171L77.7054 62.0275L77.6017 61.6398L77.4924 61.2545L77.377 60.8718L77.256 60.4921L77.1297 60.1158L76.9977 59.7431L76.861 59.3748L76.719 59.0111L76.5724 58.6521L76.4207 58.2981L76.2647 57.9501L76.1044 57.6078L75.9397 57.2718L75.7707 56.9425L75.598 56.6205L75.4217 56.3055L75.2414 55.9985L75.058 55.6995Z" fill="#C74E4C"/>
<path fill-rule="evenodd" clip-rule="evenodd" d="M78.4447 67.4927L204.654 193.702L204.653 193.862L204.651 194.021L204.647 194.18L204.642 194.338L204.635 194.496L204.627 194.653L204.617 194.809L204.606 194.965L204.593 195.121L204.578 195.275L204.562 195.429L204.545 195.582L204.525 195.734L204.505 195.886L204.482 196.037L204.458 196.187L204.432 196.336L204.405 196.484L204.376 196.631L204.345 196.777L204.313 196.923L204.279 197.067L204.243 197.21L204.205 197.352L204.166 197.494L204.125 197.634L204.082 197.773L204.037 197.911L203.991 198.047L203.943 198.183L203.893 198.317L203.841 198.45L77.632 72.241L77.684 72.108L77.734 71.9737L77.782 71.8383L77.8284 71.7017L77.873 71.5637L77.916 71.4247L77.957 71.2847L77.9964 71.1433L78.034 71.0013L78.0697 70.858L78.1037 70.7137L78.1364 70.5683L78.167 70.422L78.196 70.2747L78.2234 70.1267L78.2494 69.9777L78.2734 69.8277L78.2957 69.677L78.3167 69.5253L78.3357 69.373L78.3534 69.22L78.3694 69.066L78.384 68.9117L78.3967 68.7563L78.408 68.6003L78.418 68.4437L78.426 68.2867L78.4327 68.129L78.438 67.9707L78.4417 67.8117L78.4437 67.6523L78.4447 67.4927Z" fill="#C74E4C"/>
<path fill-rule="evenodd" clip-rule="evenodd" d="M77.632 72.2412L203.841 198.45L203.728 198.723L203.606 198.989L203.477 199.249L203.339 199.503L203.194 199.75L203.04 199.99L202.877 200.223L202.707 200.449L202.527 200.668L202.339 200.879L202.143 201.081L201.937 201.276L201.722 201.462L201.499 201.64L201.266 201.808L201.024 201.968L74.8147 75.7589L75.057 75.5992L75.2897 75.4305L75.5134 75.2529L75.728 75.0665L75.9337 74.8722L76.1304 74.6692L76.3184 74.4585L76.4977 74.2402L76.6687 74.0142L76.831 73.7812L76.9847 73.5409L77.1304 73.2935L77.268 73.0399L77.3974 72.7799L77.5187 72.5135L77.632 72.2412Z" fill="#C74E4C"/>
<path fill-rule="evenodd" clip-rule="evenodd" d="M74.8147 75.7588L201.024 201.968L200.916 202.034L200.807 202.098L200.696 202.161L200.583 202.222L200.469 202.281L200.353 202.338L200.235 202.393L200.116 202.446L199.995 202.497L199.872 202.546L199.748 202.594L199.622 202.639L199.494 202.682L199.365 202.723L199.233 202.762L199.101 202.799L198.966 202.834L198.829 202.867L198.691 202.898L198.551 202.926L198.41 202.952L198.266 202.977L198.121 202.999L197.974 203.018L197.825 203.036L197.675 203.051L197.522 203.064L197.368 203.074L197.212 203.083L197.054 203.089L196.894 203.092L196.733 203.093L70.5237 76.8845L70.6854 76.8835L70.845 76.8798L71.003 76.8738L71.159 76.8655L71.313 76.8551L71.4657 76.8421L71.616 76.8268L71.765 76.8095L71.912 76.7898L72.0573 76.7678L72.2007 76.7435L72.3424 76.7175L72.4823 76.6888L72.6204 76.6581L72.757 76.6255L72.8917 76.5905L73.0247 76.5531L73.1557 76.5141L73.2854 76.4731L73.413 76.4298L73.539 76.3848L73.6633 76.3375L73.786 76.2881L73.907 76.2371L74.0264 76.1838L74.144 76.1288L74.26 76.0718L74.374 76.0128L74.4867 75.9521L74.5977 75.8895L74.707 75.8251L74.8147 75.7588Z" fill="#C74E4C"/>
<path fill-rule="evenodd" clip-rule="evenodd" d="M70.5237 76.8845L196.733 203.094H155.685L29.4764 76.8845H70.5237Z" fill="#C74E4C"/>
<path fill-rule="evenodd" clip-rule="evenodd" d="M29.4764 76.8845L155.685 203.093L155.524 203.092L155.364 203.089L155.206 203.083L155.05 203.074L154.896 203.064L154.743 203.051L154.593 203.036L154.444 203.018L154.297 202.999L154.152 202.977L154.008 202.952L153.867 202.926L153.727 202.898L153.588 202.867L153.452 202.834L153.317 202.799L153.184 202.762L153.053 202.723L152.924 202.682L152.796 202.639L152.67 202.594L152.545 202.546L152.423 202.497L152.302 202.446L152.183 202.393L152.065 202.338L151.949 202.281L151.835 202.222L151.722 202.161L151.611 202.098L151.502 202.034L151.394 201.968L25.1854 75.7588L25.293 75.8251L25.4024 75.8895L25.513 75.9521L25.6257 76.0128L25.74 76.0718L25.856 76.1288L25.9737 76.1838L26.093 76.2371L26.214 76.2881L26.3364 76.3375L26.461 76.3848L26.587 76.4298L26.7147 76.4731L26.8444 76.5145L26.9754 76.5535L27.1084 76.5905L27.243 76.6255L27.3797 76.6581L27.5177 76.6888L27.6577 76.7175L27.7994 76.7435L27.9427 76.7678L28.088 76.7898L28.235 76.8095L28.384 76.8268L28.5344 76.8421L28.687 76.8551L28.841 76.8655L28.997 76.8738L29.155 76.8798L29.3147 76.8835L29.4764 76.8845Z" fill="#C74E4C"/>
<path fill-rule="evenodd" clip-rule="evenodd" d="M25.1854 75.7587L151.394 201.968L151.152 201.808L150.919 201.639L150.696 201.462L150.481 201.276L24.272 75.0667L24.4867 75.2527L24.7104 75.4303L24.9434 75.599L25.1854 75.7587Z" fill="#C74E4C"/>
<path fill-rule="evenodd" clip-rule="evenodd" d="M54.1814 24.3634C55.43 25.1484 56.5797 26.3047 57.539 27.8307L75.0577 55.6997C77.0337 58.8431 78.4444 63.4381 78.4444 67.4931C78.4444 69.2004 78.194 70.8294 77.632 72.2414C77.0474 73.7091 76.1307 74.9321 74.8147 75.7591C73.6747 76.4757 72.2567 76.8847 70.5237 76.8847H29.476C27.743 76.8847 26.325 76.4757 25.185 75.7591C23.8694 74.9321 22.952 73.7091 22.3677 72.2414C21.8057 70.8297 21.5554 69.2004 21.5554 67.4931C21.5554 63.4384 22.9664 58.8431 24.942 55.6997L42.4607 27.8307C43.42 26.3047 44.57 25.1484 45.8184 24.3634C47.1417 23.5317 48.5697 23.1157 49.9997 23.1157C51.4297 23.1157 52.858 23.5317 54.181 24.3634H54.1814Z" fill="#C74E4C"/>
</g>
<path fill-rule="evenodd" clip-rule="evenodd" d="M50 28.9016C50.955 28.9016 51.8207 29.5676 52.6577 30.8989L70.1763 58.7679C70.6398 59.5164 71.0355 60.3047 71.3587 61.1236C71.7126 62.0117 72.0006 62.9247 72.2203 63.8552C72.3897 64.5726 72.682 66.4442 72.659 68.0162C72.643 69.1126 72.459 70.1142 71.9657 70.6799C71.8863 70.7813 71.7857 70.8641 71.671 70.9226H71.6697C71.5127 71.0026 71.307 71.0509 71.101 71.0782C70.9095 71.103 70.7167 71.1163 70.5237 71.1182H29.476C29.2829 71.1161 29.0902 71.1028 28.8987 71.0782C28.7354 71.0592 28.575 71.0206 28.421 70.9632C28.3022 70.9188 28.1943 70.8493 28.1047 70.7596L28.1067 70.7576C27.5587 70.2092 27.3577 69.1642 27.3407 68.0159C27.3177 66.4436 27.61 64.5722 27.7793 63.8549C27.999 62.9244 28.287 62.0114 28.641 61.1232C28.9642 60.3044 29.3599 59.516 29.8233 58.7676L47.342 30.8986C48.179 29.5672 49.0447 28.9012 49.9997 28.9012L50 28.9016ZM70.5237 76.8842C72.2567 76.8842 73.6747 76.4749 74.8147 75.7586C76.1307 74.9316 77.0473 73.7086 77.632 72.2409C78.194 70.8292 78.4443 69.1999 78.4443 67.4926C78.4443 63.4376 77.0337 58.8426 75.0577 55.6992L57.539 27.8302C56.5797 26.3042 55.43 25.1479 54.1813 24.3629C52.8583 23.5312 51.43 23.1152 50 23.1152C48.57 23.1152 47.142 23.5312 45.8187 24.3629C44.5703 25.1476 43.4203 26.3039 42.461 27.8302L24.9423 55.6992C22.9663 58.8426 21.5557 63.4379 21.5557 67.4926C21.5557 69.1999 21.806 70.8289 22.368 72.2409C22.9523 73.7089 23.8697 74.9316 25.1853 75.7586C26.3253 76.4752 27.7433 76.8842 29.4763 76.8842H70.524H70.5237Z" fill="#FFFFFE"/>
<path d="M50.889 38.992C50.889 38.8753 50.866 38.7597 50.8214 38.6518C50.7767 38.544 50.7112 38.446 50.6286 38.3634C50.5461 38.2809 50.4481 38.2154 50.3402 38.1707C50.2324 38.126 50.1168 38.103 50 38.103C49.8833 38.103 49.7677 38.126 49.6598 38.1707C49.552 38.2154 49.454 38.2809 49.3714 38.3634C49.2889 38.446 49.2234 38.544 49.1787 38.6518C49.134 38.7597 49.111 38.8753 49.111 38.992V58.812C49.111 59.0478 49.2047 59.2739 49.3714 59.4406C49.5381 59.6074 49.7642 59.701 50 59.701C50.2358 59.701 50.4619 59.6074 50.6286 59.4406C50.7954 59.2739 50.889 59.0478 50.889 58.812V38.992Z" fill="#FFFFFE"/>
<path d="M50 64.0469C50.637 64.0469 51.1533 63.5305 51.1533 62.8936C51.1533 62.2566 50.637 61.7402 50 61.7402C49.363 61.7402 48.8467 62.2566 48.8467 62.8936C48.8467 63.5305 49.363 64.0469 50 64.0469Z" fill="#FFFFFE"/>
</g>
<defs>
<clipPath id="clip0_1160_7070">
<rect width="100" height="100" fill="white"/>
</clipPath>
</defs>
</svg>
