<svg  width="43" height="46" viewBox="0 0 43 46"  fill="none" xmlns="http://www.w3.org/2000/svg">
<path d="M28.7159 26H14.284C11.0958 26 8.51123 23.4154 8.51123 20.2272V11.1461C8.51123 9.12746 9.56564 7.25547 11.292 6.20921L18.5079 1.83591C20.347 0.721363 22.6529 0.721363 24.492 1.83591L31.7079 6.20921C33.4343 7.25547 34.4887 9.12746 34.4887 11.1461V20.2272C34.4887 23.4154 31.9041 26 28.7159 26Z" stroke="#3D3D3D" stroke-width="2" stroke-linecap="round" stroke-linejoin="round"/>
<path d="M17.1704 20.2266H25.8296" stroke="#3D3D3D" stroke-width="2" stroke-linecap="round" stroke-linejoin="round"/>
<path d="M4.07 41.39C4.46333 41.4633 4.79667 41.6633 5.07 41.99C5.34333 42.3167 5.48 42.6967 5.48 43.13C5.48 43.4833 5.39 43.8033 5.21 44.09C5.03667 44.37 4.78 44.5933 4.44 44.76C4.1 44.92 3.69333 45 3.22 45H0.8V38.01H3.15C3.85667 38.01 4.39333 38.1733 4.76 38.5C5.13333 38.8267 5.32 39.25 5.32 39.77C5.32 40.2033 5.20333 40.5567 4.97 40.83C4.73667 41.0967 4.43667 41.2833 4.07 41.39ZM1.5 41.1H3.13C3.60333 41.1 3.96667 40.99 4.22 40.77C4.48 40.5433 4.61 40.2333 4.61 39.84C4.61 39.4533 4.48 39.15 4.22 38.93C3.96667 38.71 3.59333 38.6 3.1 38.6H1.5V41.1ZM3.17 44.41C3.67667 44.41 4.07 44.29 4.35 44.05C4.63667 43.81 4.78 43.48 4.78 43.06C4.78 42.64 4.63 42.3067 4.33 42.06C4.03667 41.8067 3.64 41.68 3.14 41.68H1.5V44.41H3.17ZM11.7068 41.99C11.7068 42.23 11.7001 42.4133 11.6868 42.54H7.1568C7.1768 42.9533 7.2768 43.3067 7.4568 43.6C7.6368 43.8933 7.87346 44.1167 8.1668 44.27C8.46013 44.4167 8.78013 44.49 9.1268 44.49C9.58013 44.49 9.96013 44.38 10.2668 44.16C10.5801 43.94 10.7868 43.6433 10.8868 43.27H11.6268C11.4935 43.8033 11.2068 44.24 10.7668 44.58C10.3335 44.9133 9.7868 45.08 9.1268 45.08C8.61346 45.08 8.15346 44.9667 7.7468 44.74C7.34013 44.5067 7.02013 44.18 6.7868 43.76C6.56013 43.3333 6.4468 42.8367 6.4468 42.27C6.4468 41.7033 6.56013 41.2067 6.7868 40.78C7.01346 40.3533 7.33013 40.0267 7.7368 39.8C8.14346 39.5733 8.6068 39.46 9.1268 39.46C9.6468 39.46 10.1001 39.5733 10.4868 39.8C10.8801 40.0267 11.1801 40.3333 11.3868 40.72C11.6001 41.1 11.7068 41.5233 11.7068 41.99ZM10.9968 41.97C11.0035 41.5633 10.9201 41.2167 10.7468 40.93C10.5801 40.6433 10.3501 40.4267 10.0568 40.28C9.76346 40.1333 9.44346 40.06 9.0968 40.06C8.5768 40.06 8.13346 40.2267 7.7668 40.56C7.40013 40.8933 7.1968 41.3633 7.1568 41.97H10.9968ZM13.6875 40.51C13.8408 40.17 14.0742 39.9067 14.3875 39.72C14.7075 39.5333 15.0975 39.44 15.5575 39.44V40.17H15.3675C14.8608 40.17 14.4542 40.3067 14.1475 40.58C13.8408 40.8533 13.6875 41.31 13.6875 41.95V45H12.9875V39.54H13.6875V40.51ZM16.2905 42.26C16.2905 41.7 16.4005 41.21 16.6205 40.79C16.8472 40.3633 17.1572 40.0367 17.5505 39.81C17.9505 39.5767 18.4005 39.46 18.9005 39.46C19.4205 39.46 19.8672 39.58 20.2405 39.82C20.6205 40.06 20.8939 40.3667 21.0605 40.74V39.54H21.7605V45H21.0605V43.79C20.8872 44.1633 20.6105 44.4733 20.2305 44.72C19.8572 44.96 19.4105 45.08 18.8905 45.08C18.3972 45.08 17.9505 44.9633 17.5505 44.73C17.1572 44.4967 16.8472 44.1667 16.6205 43.74C16.4005 43.3133 16.2905 42.82 16.2905 42.26ZM21.0605 42.27C21.0605 41.83 20.9705 41.4433 20.7905 41.11C20.6105 40.7767 20.3639 40.52 20.0505 40.34C19.7439 40.16 19.4039 40.07 19.0305 40.07C18.6439 40.07 18.2972 40.1567 17.9905 40.33C17.6839 40.5033 17.4405 40.7567 17.2605 41.09C17.0872 41.4167 17.0005 41.8067 17.0005 42.26C17.0005 42.7067 17.0872 43.1 17.2605 43.44C17.4405 43.7733 17.6839 44.03 17.9905 44.21C18.2972 44.3833 18.6439 44.47 19.0305 44.47C19.4039 44.47 19.7439 44.38 20.0505 44.2C20.3639 44.02 20.6105 43.7633 20.7905 43.43C20.9705 43.0967 21.0605 42.71 21.0605 42.27ZM25.9186 39.44C26.5719 39.44 27.1053 39.6433 27.5186 40.05C27.9319 40.45 28.1386 41.0333 28.1386 41.8V45H27.4486V41.88C27.4486 41.2867 27.2986 40.8333 26.9986 40.52C26.7053 40.2067 26.3019 40.05 25.7886 40.05C25.2619 40.05 24.8419 40.2167 24.5286 40.55C24.2153 40.8833 24.0586 41.3733 24.0586 42.02V45H23.3586V39.54H24.0586V40.47C24.2319 40.1367 24.4819 39.8833 24.8086 39.71C25.1353 39.53 25.5053 39.44 25.9186 39.44ZM29.3667 42.26C29.3667 41.7 29.4801 41.21 29.7067 40.79C29.9334 40.3633 30.2434 40.0367 30.6367 39.81C31.0367 39.5767 31.4867 39.46 31.9867 39.46C32.4667 39.46 32.9001 39.5767 33.2867 39.81C33.6734 40.0433 33.9567 40.3467 34.1367 40.72V37.6H34.8367V45H34.1367V43.78C33.9701 44.16 33.6967 44.4733 33.3167 44.72C32.9367 44.96 32.4901 45.08 31.9767 45.08C31.4767 45.08 31.0267 44.9633 30.6267 44.73C30.2334 44.4967 29.9234 44.1667 29.6967 43.74C29.4767 43.3133 29.3667 42.82 29.3667 42.26ZM34.1367 42.27C34.1367 41.83 34.0467 41.4433 33.8667 41.11C33.6867 40.7767 33.4401 40.52 33.1267 40.34C32.8201 40.16 32.4801 40.07 32.1067 40.07C31.7201 40.07 31.3734 40.1567 31.0667 40.33C30.7601 40.5033 30.5167 40.7567 30.3367 41.09C30.1634 41.4167 30.0767 41.8067 30.0767 42.26C30.0767 42.7067 30.1634 43.1 30.3367 43.44C30.5167 43.7733 30.7601 44.03 31.0667 44.21C31.3734 44.3833 31.7201 44.47 32.1067 44.47C32.4801 44.47 32.8201 44.38 33.1267 44.2C33.4401 44.02 33.6867 43.7633 33.8667 43.43C34.0467 43.0967 34.1367 42.71 34.1367 42.27ZM36.1148 42.26C36.1148 41.7 36.2248 41.21 36.4448 40.79C36.6714 40.3633 36.9814 40.0367 37.3748 39.81C37.7748 39.5767 38.2248 39.46 38.7248 39.46C39.2448 39.46 39.6914 39.58 40.0648 39.82C40.4448 40.06 40.7181 40.3667 40.8848 40.74V39.54H41.5848V45H40.8848V43.79C40.7114 44.1633 40.4348 44.4733 40.0548 44.72C39.6814 44.96 39.2348 45.08 38.7148 45.08C38.2214 45.08 37.7748 44.9633 37.3748 44.73C36.9814 44.4967 36.6714 44.1667 36.4448 43.74C36.2248 43.3133 36.1148 42.82 36.1148 42.26ZM40.8848 42.27C40.8848 41.83 40.7948 41.4433 40.6148 41.11C40.4348 40.7767 40.1881 40.52 39.8748 40.34C39.5681 40.16 39.2281 40.07 38.8548 40.07C38.4681 40.07 38.1214 40.1567 37.8148 40.33C37.5081 40.5033 37.2648 40.7567 37.0848 41.09C36.9114 41.4167 36.8248 41.8067 36.8248 42.26C36.8248 42.7067 36.9114 43.1 37.0848 43.44C37.2648 43.7733 37.5081 44.03 37.8148 44.21C38.1214 44.3833 38.4681 44.47 38.8548 44.47C39.2281 44.47 39.5681 44.38 39.8748 44.2C40.1881 44.02 40.4348 43.7633 40.6148 43.43C40.7948 43.0967 40.8848 42.71 40.8848 42.27Z" fill="#3D3D3D"/>
</svg>