<svg width="21" height="21" viewBox="0 0 21 21" fill="none" xmlns="http://www.w3.org/2000/svg">
<path d="M10.4167 0.0830078C8.35645 0.0830078 6.34249 0.693935 4.62948 1.83853C2.91647 2.98313 1.58134 4.60999 0.792926 6.51339C0.00451338 8.41679 -0.201771 10.5112 0.200158 12.5319C0.602087 14.5525 1.59418 16.4086 3.05098 17.8654C4.50777 19.3222 6.36385 20.3143 8.38448 20.7162C10.4051 21.1181 12.4996 20.9118 14.403 20.1234C16.3064 19.335 17.9332 17.9999 19.0778 16.2869C20.2224 14.5739 20.8333 12.5599 20.8333 10.4997C20.8333 9.13174 20.5639 7.7772 20.0404 6.51339C19.5169 5.24958 18.7496 4.10126 17.7824 3.13398C16.8151 2.1667 15.6668 1.39942 14.403 0.875929C13.1392 0.352443 11.7846 0.0830078 10.4167 0.0830078ZM10.4167 18.833C8.76849 18.833 7.15733 18.3443 5.78692 17.4286C4.41651 16.5129 3.34841 15.2114 2.71768 13.6887C2.08695 12.166 1.92192 10.4904 2.24346 8.87392C2.565 7.25741 3.35868 5.77256 4.52412 4.60712C5.68955 3.44168 7.17441 2.64801 8.79092 2.32646C10.4074 2.00492 12.083 2.16995 13.6057 2.80068C15.1284 3.43141 16.4299 4.49951 17.3456 5.86992C18.2613 7.24033 18.75 8.8515 18.75 10.4997C18.75 12.7098 17.872 14.8294 16.3092 16.3922C14.7464 17.955 12.6268 18.833 10.4167 18.833Z" fill="#3D3D3D"/>
<path d="M10.4167 7.37435C10.992 7.37435 11.4583 6.90798 11.4583 6.33268C11.4583 5.75739 10.992 5.29102 10.4167 5.29102C9.84137 5.29102 9.375 5.75739 9.375 6.33268C9.375 6.90798 9.84137 7.37435 10.4167 7.37435Z" fill="#3D3D3D"/>
<path d="M10.4167 8.41602C10.1404 8.41602 9.87545 8.52576 9.6801 8.72111C9.48475 8.91646 9.375 9.18142 9.375 9.45768V14.666C9.375 14.9423 9.48475 15.2072 9.6801 15.4026C9.87545 15.5979 10.1404 15.7077 10.4167 15.7077C10.6929 15.7077 10.9579 15.5979 11.1532 15.4026C11.3486 15.2072 11.4583 14.9423 11.4583 14.666V9.45768C11.4583 9.18142 11.3486 8.91646 11.1532 8.72111C10.9579 8.52576 10.6929 8.41602 10.4167 8.41602Z" fill="#3D3D3D"/>
</svg>
