<svg width="30" height="30" viewBox="0 0 30 30" fill="none" xmlns="http://www.w3.org/2000/svg">
<path d="M14.0197 14.5572L18.4447 10.1322C18.6776 9.89804 18.8082 9.58123 18.8082 9.251C18.8082 8.92077 18.6776 8.60395 18.4447 8.36975C18.3285 8.25259 18.1903 8.15959 18.038 8.09613C17.8856 8.03267 17.7223 8 17.5572 8C17.3922 8 17.2289 8.03267 17.0765 8.09613C16.9242 8.15959 16.786 8.25259 16.6697 8.36975L11.3697 13.6697C11.2526 13.786 11.1596 13.9242 11.0961 14.0765C11.0327 14.2289 11 14.3922 11 14.5572C11 14.7223 11.0327 14.8856 11.0961 15.038C11.1596 15.1903 11.2526 15.3285 11.3697 15.4447L16.6697 20.8072C16.7865 20.9231 16.9251 21.0148 17.0774 21.077C17.2297 21.1392 17.3927 21.1707 17.5572 21.1698C17.7218 21.1707 17.8848 21.1392 18.0371 21.077C18.1894 21.0148 18.3279 20.9231 18.4447 20.8072C18.6776 20.573 18.8082 20.2562 18.8082 19.926C18.8082 19.5958 18.6776 19.279 18.4447 19.0447L14.0197 14.5572Z" fill="black"/>
</svg>
