<svg width="25" height="25" viewBox="0 0 25 25" fill="none" xmlns="http://www.w3.org/2000/svg">
<path d="M12.5 0.78125C9.09999 0.78125 6.33358 3.54766 6.33358 6.94766V10.4523C5.8001 10.5564 5.31931 10.8425 4.97334 11.2617C4.62737 11.6809 4.43769 12.2072 4.43671 12.7508V21.875C4.43671 23.1672 5.48749 24.2188 6.78046 24.2188H18.2187C19.5117 24.2188 20.5625 23.1672 20.5625 21.875V12.7508C20.5615 12.2072 20.3718 11.6809 20.0259 11.2617C19.6799 10.8425 19.1991 10.5564 18.6656 10.4523V6.94766C18.6664 3.54766 15.9 0.78125 12.5 0.78125ZM7.89608 6.94766C7.89608 4.40859 9.96093 2.34375 12.5 2.34375C15.0391 2.34375 17.1039 4.40937 17.1039 6.94766V10.407H7.89608V6.94766ZM19.0008 12.7508V21.875C19.0008 22.3055 18.6508 22.6562 18.2195 22.6562H6.78124C6.34999 22.6562 5.99999 22.3055 5.99999 21.875V12.7508C5.99999 12.3203 6.34999 11.9695 6.78124 11.9695H18.2187C18.65 11.9695 19.0008 12.3203 19.0008 12.7508Z" fill="black"/>
<path d="M12.5 13.8848C11.7564 13.8856 11.0435 14.1814 10.5177 14.7072C9.9919 15.233 9.69614 15.9459 9.69531 16.6895C9.69531 17.9629 10.5547 19.0277 11.7188 19.3691V19.9605C11.7188 20.1677 11.8011 20.3665 11.9476 20.513C12.0941 20.6595 12.2928 20.7418 12.5 20.7418C12.7072 20.7418 12.9059 20.6595 13.0524 20.513C13.1989 20.3665 13.2812 20.1677 13.2812 19.9605V19.3684C14.4453 19.0277 15.3047 17.9621 15.3047 16.6887C15.3047 15.1434 14.0461 13.8848 12.5 13.8848ZM12.5 17.9309C12.1706 17.9309 11.8546 17.8 11.6216 17.567C11.3887 17.3341 11.2578 17.0181 11.2578 16.6887C11.2578 16.0043 11.8156 15.4473 12.5 15.4473C13.1844 15.4473 13.7422 16.0043 13.7422 16.6895C13.7418 17.0186 13.6107 17.3342 13.3778 17.5668C13.1449 17.7994 12.8292 17.9309 12.5 17.9309Z" fill="black"/>
</svg>
