<svg width="25" height="21" viewBox="0 0 25 21" fill="none" xmlns="http://www.w3.org/2000/svg">
<path d="M15.3466 3.19467C13.3169 2.60389 11.3539 1.8043 9.48904 0.808713C9.16136 0.606875 8.78407 0.5 8.39921 0.5C8.01436 0.5 7.63706 0.606875 7.30938 0.808713C5.44472 1.80417 3.48194 2.60376 1.45248 3.19467C1.0202 3.3312 0.644408 3.60532 0.382377 3.97525C0.120346 4.34519 -0.0135535 4.79064 0.00108434 5.24374L0.229837 12.1479C0.739608 15.6165 4.37747 18.5092 6.50112 19.924C7.06289 20.2995 7.72346 20.5 8.39921 20.5C9.07496 20.5 9.73553 20.2995 10.2973 19.924C12.421 18.5092 16.0588 15.6165 16.5754 12.0693L16.7972 5.24443C16.812 4.79133 16.6783 4.34582 16.4164 3.97577C16.1545 3.60572 15.7789 3.33142 15.3466 3.19467ZM15.197 11.9455C14.7652 14.8846 11.4603 17.4821 9.52842 18.7697C9.19434 18.9934 8.80131 19.1129 8.39921 19.1129C7.99712 19.1129 7.60408 18.9934 7.27001 18.7697C5.33809 17.4821 2.03324 14.8841 1.60817 12.0245L1.38635 5.19965C1.38131 5.04928 1.42544 4.90137 1.51206 4.77835C1.59868 4.65533 1.72305 4.56391 1.86632 4.51797C4.00495 3.89377 6.07206 3.04657 8.03362 1.99032C8.14281 1.9206 8.26966 1.88356 8.39921 1.88356C8.52876 1.88356 8.65561 1.9206 8.7648 1.99032C10.7266 3.04652 12.7941 3.89354 14.9331 4.51741C15.0762 4.5635 15.2004 4.65497 15.2869 4.77798C15.3734 4.90098 15.4174 5.04882 15.4123 5.1991L15.197 11.9455ZM9.62519 9.32912C9.62256 9.52392 9.57271 9.71518 9.47991 9.88648C9.38711 10.0578 9.25414 10.204 9.0924 10.3126V12.2C9.0924 12.3839 9.01937 12.5602 8.88937 12.6902C8.75937 12.8202 8.58306 12.8932 8.39921 12.8932C8.21537 12.8932 8.03905 12.8202 7.90905 12.6902C7.77905 12.5602 7.70602 12.3839 7.70602 12.2V10.3126C7.54428 10.204 7.41131 10.0578 7.31851 9.88648C7.22571 9.71518 7.17586 9.52392 7.17324 9.32912C7.17324 9.00397 7.3024 8.69214 7.53232 8.46222C7.76223 8.23231 8.07406 8.10314 8.39921 8.10314C8.72436 8.10314 9.03619 8.23231 9.26611 8.46222C9.49602 8.69214 9.62519 9.00397 9.62519 9.32912Z" fill="#3D3D3D"/>
</svg>
