<svg width="25" height="25" viewBox="0 0 25 25" fill="none" xmlns="http://www.w3.org/2000/svg">
<path d="M6.25 14.8438C6.0428 14.8438 5.84409 14.9261 5.69757 15.0726C5.55106 15.2191 5.46875 15.4178 5.46875 15.625C5.46875 15.8322 5.55106 16.0309 5.69757 16.1774C5.84409 16.3239 6.0428 16.4062 6.25 16.4062H12.5C12.7072 16.4062 12.9059 16.3239 13.0524 16.1774C13.1989 16.0309 13.2812 15.8322 13.2812 15.625C13.2812 15.4178 13.1989 15.2191 13.0524 15.0726C12.9059 14.9261 12.7072 14.8438 12.5 14.8438H6.25Z" fill="black"/>
<path fill-rule="evenodd" clip-rule="evenodd" d="M5.20831 4.16699C4.37951 4.16699 3.58466 4.49623 2.9986 5.08228C2.41255 5.66833 2.08331 6.46319 2.08331 7.29199V17.7087C2.08331 18.5375 2.41255 19.3323 2.9986 19.9184C3.58466 20.5044 4.37951 20.8337 5.20831 20.8337H19.7916C20.6204 20.8337 21.4153 20.5044 22.0014 19.9184C22.5874 19.3323 22.9166 18.5375 22.9166 17.7087V7.29199C22.9166 6.46319 22.5874 5.66833 22.0014 5.08228C21.4153 4.49623 20.6204 4.16699 19.7916 4.16699H5.20831ZM19.7916 5.72949H5.20831C4.79391 5.72949 4.39648 5.89411 4.10346 6.18714C3.81043 6.48016 3.64581 6.87759 3.64581 7.29199V8.59408H21.3541V7.29199C21.3541 6.87759 21.1895 6.48016 20.8965 6.18714C20.6035 5.89411 20.206 5.72949 19.7916 5.72949ZM3.64581 17.7087V10.1566H21.3541V17.7087C21.3541 18.1231 21.1895 18.5205 20.8965 18.8135C20.6035 19.1065 20.206 19.2712 19.7916 19.2712H5.20831C4.79391 19.2712 4.39648 19.1065 4.10346 18.8135C3.81043 18.5205 3.64581 18.1231 3.64581 17.7087Z" fill="black"/>
</svg>
