<svg width="25" height="25" viewBox="0 0 25 25" fill="none" xmlns="http://www.w3.org/2000/svg">
<g clip-path="url(#clip0_1111_525)">
<path d="M14.8682 13.1514L12.5127 17.2314L12.5 17.2529L8.30909 24.5117C8.28803 24.5482 8.25787 24.5787 8.22154 24.6001C8.18521 24.6215 8.14395 24.6331 8.1018 24.6338C8.05964 24.6345 8.01802 24.6242 7.98101 24.604C7.944 24.5838 7.91286 24.5544 7.89063 24.5186L6.53858 22.3403C6.51742 22.3061 6.4881 22.2777 6.45324 22.2576C6.41839 22.2374 6.37909 22.2263 6.33887 22.2251L3.77686 22.1436C3.73467 22.1422 3.69355 22.13 3.65751 22.108C3.62147 22.086 3.59174 22.0551 3.57123 22.0182C3.55072 21.9813 3.54012 21.9397 3.54047 21.8975C3.54083 21.8553 3.55212 21.8139 3.57325 21.7773L7.23926 15.4272L10.1318 10.417L14.8682 13.1514Z" fill="#FFE64E"/>
<path d="M21.2231 22.1436L18.6611 22.2251C18.6209 22.2263 18.5816 22.2374 18.5468 22.2576C18.5119 22.2777 18.4826 22.3061 18.4614 22.3403L17.1094 24.5186C17.0871 24.5544 17.056 24.5838 17.019 24.604C16.982 24.6242 16.9404 24.6345 16.8982 24.6338C16.8561 24.6331 16.8148 24.6215 16.7785 24.6001C16.7421 24.5787 16.712 24.5482 16.6909 24.5117L12.5 17.2529L12.4873 17.2314L10.1318 13.1514L14.8682 10.417L17.7607 15.4272L21.4268 21.7773C21.4479 21.8139 21.4592 21.8553 21.4595 21.8975C21.4599 21.9397 21.4493 21.9813 21.4288 22.0182C21.4083 22.0551 21.3785 22.086 21.3425 22.108C21.3065 22.13 21.2653 22.1422 21.2231 22.1436Z" fill="#FFE64E"/>
<path d="M21.2416 8.73374C21.2416 9.62407 20.1479 10.3307 19.8871 11.1341C19.6167 11.9667 20.0768 13.1794 19.5724 13.8725C19.063 14.5725 17.7641 14.5071 17.0641 15.0166C16.371 15.5209 16.0346 16.7792 15.2019 17.0496C14.3985 17.3105 13.3904 16.4988 12.5 16.4988C11.6097 16.4988 10.6015 17.3105 9.79809 17.0496C8.96548 16.7793 8.629 15.5209 7.93594 15.0166C7.23594 14.5071 5.93701 14.5725 5.42764 13.8725C4.92324 13.1794 5.3833 11.9667 5.11294 11.1341C4.8521 10.3307 3.75845 9.62407 3.75845 8.73374C3.75845 7.84341 4.8521 7.13682 5.11294 6.33345C5.3833 5.50083 4.92319 4.28809 5.42759 3.59507C5.93701 2.89507 7.23594 2.96035 7.93594 2.45093C8.629 1.94654 8.96543 0.688235 9.79809 0.417874C10.6015 0.157034 11.6096 0.968753 12.5 0.968753C13.3903 0.968753 14.3985 0.157034 15.2019 0.417874C16.0345 0.688235 16.371 1.94654 17.0641 2.45093C17.7641 2.96035 19.063 2.89507 19.5724 3.59507C20.0768 4.28809 19.6167 5.50083 19.8871 6.3334C20.1479 7.13682 21.2416 7.84336 21.2416 8.73374Z" fill="#FFCD85"/>
<path d="M17.7607 15.4272C17.502 15.5093 17.2598 15.6064 17.064 15.749C16.3711 16.2534 16.0347 17.5117 15.2021 17.7822C14.4023 18.0415 13.3999 17.2388 12.5127 17.2314C12.5042 17.2308 12.4958 17.2308 12.4873 17.2314C11.6001 17.2388 10.5977 18.0415 9.79834 17.7822C8.96533 17.5117 8.62891 16.2534 7.93604 15.749C7.74023 15.6064 7.49805 15.5093 7.23926 15.4272L10.1318 10.417L12.5 11.7842L14.8682 10.417L17.7607 15.4272Z" fill="#FFD815"/>
<path d="M21.2416 8.73374C21.2416 9.62407 20.1479 10.3307 19.8871 11.1341C19.6167 11.9667 20.0768 13.1794 19.5724 13.8725C19.063 14.5725 17.7641 14.5071 17.0641 15.0166C16.371 15.5209 16.0346 16.7792 15.2019 17.0496C14.3985 17.3105 13.3904 16.4988 12.5 16.4988C11.6097 16.4988 10.6015 17.3105 9.79809 17.0496C8.96548 16.7793 8.629 15.5209 7.93594 15.0166C7.23594 14.5071 5.93701 14.5725 5.42764 13.8725C4.92324 13.1794 5.3833 11.9667 5.11294 11.1341C4.8521 10.3307 3.75845 9.62407 3.75845 8.73374C3.75845 7.84341 4.8521 7.13682 5.11294 6.33345C5.3833 5.50083 4.92319 4.28809 5.42759 3.59507C5.93701 2.89507 7.23594 2.96035 7.93594 2.45093C8.629 1.94654 8.96543 0.688235 9.79809 0.417874C10.6015 0.157034 11.6096 0.968753 12.5 0.968753C13.3903 0.968753 14.3985 0.157034 15.2019 0.417874C16.0345 0.688235 16.371 1.94654 17.0641 2.45093C17.7641 2.96035 19.063 2.89507 19.5724 3.59507C20.0768 4.28809 19.6167 5.50083 19.8871 6.3334C20.1479 7.13682 21.2416 7.84336 21.2416 8.73374Z" fill="#FF6666"/>
<path d="M15.5502 11.6949H10.5105C10.4098 11.6949 10.3113 11.6648 10.2277 11.6085C10.1441 11.5522 10.0792 11.4722 10.0413 11.3788L8.65039 7.9478L11.2822 9.34521C11.312 9.36106 11.3447 9.37077 11.3783 9.37379C11.412 9.37681 11.4459 9.37307 11.478 9.36278C11.5102 9.3525 11.54 9.33589 11.5656 9.31392C11.5913 9.29195 11.6123 9.26507 11.6274 9.23486L13.0304 6.42871L14.4334 9.23486C14.4486 9.26507 14.4695 9.29195 14.4952 9.31392C14.5208 9.33589 14.5506 9.3525 14.5828 9.36278C14.615 9.37307 14.6489 9.37681 14.6825 9.37379C14.7161 9.37077 14.7488 9.36106 14.7787 9.34521L17.4104 7.9478L16.0195 11.3788C15.9816 11.4722 15.9167 11.5522 15.8331 11.6085C15.7495 11.6648 15.651 11.6949 15.5502 11.6949Z" fill="#FF4E4E"/>
<path d="M13.0531 6.4209C13.5385 6.4209 13.932 6.0274 13.932 5.54199C13.932 5.05659 13.5385 4.66309 13.0531 4.66309C12.5677 4.66309 12.1742 5.05659 12.1742 5.54199C12.1742 6.0274 12.5677 6.4209 13.0531 6.4209Z" fill="#FF4E4E"/>
<path d="M17.9603 8.17871C18.3783 8.17871 18.7171 7.83986 18.7171 7.42188C18.7171 7.00389 18.3783 6.66504 17.9603 6.66504C17.5423 6.66504 17.2035 7.00389 17.2035 7.42188C17.2035 7.83986 17.5423 8.17871 17.9603 8.17871Z" fill="#FF4E4E"/>
<path d="M8.09702 8.17871C8.51501 8.17871 8.85386 7.83986 8.85386 7.42188C8.85386 7.00389 8.51501 6.66504 8.09702 6.66504C7.67903 6.66504 7.34019 7.00389 7.34019 7.42188C7.34019 7.83986 7.67903 8.17871 8.09702 8.17871Z" fill="#FF4E4E"/>
<path d="M15.0216 11.6949H9.98198C9.88119 11.6949 9.78269 11.6648 9.69909 11.6085C9.6155 11.5522 9.55061 11.4722 9.51274 11.3788L8.12183 7.9478L10.7536 9.34521C10.7834 9.36106 10.8161 9.37077 10.8497 9.37379C10.8834 9.37681 10.9173 9.37307 10.9494 9.36278C10.9816 9.3525 11.0114 9.33589 11.037 9.31392C11.0627 9.29195 11.0837 9.26507 11.0988 9.23486L12.5018 6.42871L13.9049 9.23486C13.92 9.26506 13.941 9.29194 13.9666 9.3139C13.9923 9.33586 14.0221 9.35248 14.0542 9.36276C14.0864 9.37304 14.1203 9.37679 14.1539 9.37377C14.1875 9.37076 14.2202 9.36105 14.25 9.34521L16.8818 7.9478L15.4909 11.3788C15.453 11.4722 15.3882 11.5522 15.3046 11.6085C15.221 11.6648 15.1225 11.6949 15.0217 11.6949H15.0216Z" fill="#FFE64E"/>
<path d="M13.1723 9.23481C13.1874 9.26501 13.2084 9.29189 13.2341 9.31385C13.2597 9.33582 13.2895 9.35243 13.3217 9.36271C13.3538 9.37299 13.3877 9.37674 13.4214 9.37372C13.455 9.37071 13.4877 9.361 13.5175 9.34517L13.8671 9.15957L12.5017 6.42871L12.1355 7.16113L13.1723 9.23481ZM15.9484 8.44336L14.7584 11.3788C14.7205 11.4722 14.6556 11.5522 14.572 11.6085C14.4884 11.6648 14.3899 11.6949 14.2891 11.6949H15.0216C15.1224 11.6949 15.2209 11.6648 15.3044 11.6085C15.388 11.5522 15.4529 11.4722 15.4908 11.3788L16.8817 7.9478L15.9484 8.44336ZM10.021 9.34521C10.0508 9.36106 10.0835 9.37077 10.1172 9.37379C10.1508 9.37681 10.1847 9.37307 10.2169 9.36278C10.2491 9.3525 10.2788 9.33589 10.3045 9.31392C10.3301 9.29195 10.3511 9.26507 10.3662 9.23486L10.4038 9.15957L8.1217 7.9478L8.32258 8.44341L10.021 9.34521Z" fill="#FFDF1F"/>
<path d="M12.5244 6.4209C13.0098 6.4209 13.4033 6.0274 13.4033 5.54199C13.4033 5.05659 13.0098 4.66309 12.5244 4.66309C12.039 4.66309 11.6455 5.05659 11.6455 5.54199C11.6455 6.0274 12.039 6.4209 12.5244 6.4209Z" fill="#FFE64E"/>
<path d="M12.5244 4.66309C12.428 4.66324 12.3324 4.67929 12.2412 4.7106C12.4149 4.76958 12.5658 4.88149 12.6726 5.0306C12.7795 5.17972 12.8369 5.35855 12.8369 5.54199C12.8369 5.72543 12.7795 5.90427 12.6726 6.05338C12.5658 6.2025 12.4149 6.3144 12.2412 6.37339C12.3619 6.41456 12.4902 6.42895 12.6171 6.41555C12.7439 6.40216 12.8663 6.3613 12.9758 6.29582C13.0853 6.23034 13.1792 6.14181 13.251 6.03638C13.3228 5.93094 13.3708 5.81114 13.3917 5.68529C13.4125 5.55944 13.4057 5.43056 13.3717 5.30761C13.3377 5.18465 13.2773 5.07058 13.1948 4.9733C13.1123 4.87603 13.0096 4.79789 12.8938 4.74432C12.778 4.69075 12.652 4.66303 12.5244 4.66309Z" fill="#FFDF1F"/>
<path d="M17.4316 8.17871C17.8496 8.17871 18.1885 7.83986 18.1885 7.42188C18.1885 7.00389 17.8496 6.66504 17.4316 6.66504C17.0137 6.66504 16.6748 7.00389 16.6748 7.42188C16.6748 7.83986 17.0137 8.17871 17.4316 8.17871Z" fill="#FFE64E"/>
<path d="M17.4316 6.66504C17.3452 6.6652 17.2594 6.68023 17.1781 6.70947C17.3253 6.76167 17.4527 6.85819 17.5428 6.98576C17.633 7.11333 17.6813 7.26568 17.6813 7.42188C17.6813 7.57807 17.633 7.73042 17.5428 7.85799C17.4527 7.98556 17.3253 8.08208 17.1781 8.13428C17.2819 8.17127 17.3927 8.18511 17.5024 8.17483C17.6122 8.16455 17.7184 8.13039 17.8136 8.07476C17.9088 8.01912 17.9907 7.94335 18.0535 7.85275C18.1164 7.76215 18.1587 7.6589 18.1774 7.55025C18.1962 7.44159 18.1909 7.33015 18.1621 7.22372C18.1333 7.1173 18.0815 7.01846 18.0105 6.93414C17.9394 6.84981 17.8508 6.78203 17.7508 6.73555C17.6508 6.68907 17.5419 6.665 17.4316 6.66504Z" fill="#FFDF1F"/>
<path d="M7.56836 8.17871C7.98635 8.17871 8.3252 7.83986 8.3252 7.42188C8.3252 7.00389 7.98635 6.66504 7.56836 6.66504C7.15037 6.66504 6.81152 7.00389 6.81152 7.42188C6.81152 7.83986 7.15037 8.17871 7.56836 8.17871Z" fill="#FFE64E"/>
<path d="M7.56836 6.66504C7.48242 6.66521 7.39714 6.68007 7.31621 6.70898C7.46376 6.76098 7.59153 6.85747 7.68192 6.98516C7.77231 7.11285 7.82085 7.26543 7.82085 7.42188C7.82085 7.57832 7.77231 7.7309 7.68192 7.85859C7.59153 7.98628 7.46376 8.08277 7.31621 8.13477C7.42009 8.17154 7.53076 8.18517 7.64047 8.17471C7.75017 8.16425 7.85627 8.12994 7.95133 8.0742C8.0464 8.01846 8.12813 7.94262 8.19083 7.85199C8.25352 7.76136 8.29566 7.65812 8.3143 7.54951C8.33293 7.44089 8.32761 7.32951 8.29871 7.22317C8.26981 7.11682 8.21802 7.01808 8.14697 6.93383C8.07593 6.84959 7.98733 6.78189 7.88739 6.73546C7.78744 6.68903 7.67856 6.665 7.56836 6.66504Z" fill="#FFDF1F"/>
<path d="M15.7289 13.2138C15.7289 13.1167 15.6903 13.0236 15.6216 12.9549C15.553 12.8862 15.4598 12.8476 15.3627 12.8476H9.64081C9.54369 12.8476 9.45054 12.8862 9.38186 12.9549C9.31319 13.0236 9.2746 13.1167 9.2746 13.2138C9.2746 13.311 9.31319 13.4041 9.38186 13.4728C9.45054 13.5415 9.54369 13.58 9.64081 13.58H15.3627C15.4598 13.58 15.553 13.5415 15.6216 13.4728C15.6903 13.4041 15.7289 13.311 15.7289 13.2138ZM9.98193 12.061H15.0216C15.1954 12.0615 15.3653 12.0098 15.5095 11.9127C15.6537 11.8156 15.7654 11.6775 15.8303 11.5163L17.0606 8.48121C17.3012 8.56539 17.5632 8.56524 17.8037 8.4808C18.0441 8.39636 18.2487 8.23263 18.3838 8.01654C18.5189 7.80044 18.5764 7.54482 18.547 7.29168C18.5176 7.03853 18.4029 6.80292 18.2219 6.62356C18.0409 6.44419 17.8042 6.33175 17.5508 6.30469C17.2974 6.27763 17.0423 6.33757 16.8275 6.47466C16.6126 6.61176 16.4508 6.81785 16.3686 7.05907C16.2864 7.3003 16.2887 7.56231 16.3751 7.80206L14.1806 8.96734L13.0352 6.67667C13.2933 6.56051 13.5042 6.35985 13.633 6.10776C13.7618 5.85568 13.8008 5.56723 13.7437 5.28998C13.6865 5.01273 13.5366 4.76324 13.3186 4.58264C13.1006 4.40204 12.8276 4.30112 12.5446 4.29653C12.2615 4.29193 11.9854 4.38393 11.7616 4.55735C11.5379 4.73078 11.3799 4.97527 11.3138 5.25052C11.2477 5.52577 11.2773 5.81533 11.3979 6.07146C11.5184 6.3276 11.7227 6.535 11.9769 6.65948L10.8229 8.96734L8.62543 7.80054C8.71166 7.56042 8.7136 7.2981 8.63095 7.05672C8.54831 6.81534 8.38598 6.60927 8.17067 6.47239C7.95535 6.33552 7.69987 6.27598 7.44623 6.30357C7.19259 6.33117 6.95589 6.44425 6.77505 6.62422C6.59421 6.8042 6.47999 7.04035 6.45118 7.29386C6.42237 7.54736 6.48068 7.80313 6.61652 8.01909C6.75236 8.23506 6.95765 8.39837 7.19863 8.48218C7.43961 8.56599 7.70194 8.5653 7.94247 8.48023L9.17328 11.5163C9.23814 11.6775 9.34986 11.8156 9.49401 11.9127C9.63816 12.0098 9.80812 12.0615 9.98193 12.061ZM17.4317 7.03082C17.5089 7.03082 17.5845 7.05373 17.6487 7.09665C17.7129 7.13957 17.763 7.20058 17.7926 7.27196C17.8221 7.34333 17.8299 7.42188 17.8148 7.49765C17.7997 7.57342 17.7625 7.64303 17.7079 7.69766C17.6533 7.75229 17.5837 7.78949 17.5079 7.80456C17.4321 7.81963 17.3536 7.8119 17.2822 7.78233C17.2108 7.75277 17.1498 7.7027 17.1069 7.63846C17.064 7.57422 17.0411 7.4987 17.0411 7.42144C17.0412 7.31788 17.0824 7.2186 17.1556 7.14537C17.2288 7.07214 17.3281 7.03095 17.4317 7.03082ZM7.5684 7.81207C7.49114 7.81207 7.41562 7.78916 7.35138 7.74624C7.28714 7.70331 7.23708 7.64231 7.20751 7.57093C7.17795 7.49955 7.17021 7.42101 7.18528 7.34523C7.20035 7.26946 7.23756 7.19986 7.29219 7.14523C7.34682 7.0906 7.41642 7.0534 7.49219 7.03832C7.56797 7.02325 7.64651 7.03099 7.71789 7.06055C7.78926 7.09012 7.85027 7.14018 7.89319 7.20442C7.93612 7.26866 7.95903 7.34418 7.95903 7.42144C7.9589 7.525 7.9177 7.62428 7.84447 7.69751C7.77124 7.77074 7.67196 7.81194 7.5684 7.81207ZM12.5245 5.02886C12.6259 5.02886 12.725 5.05893 12.8093 5.11527C12.8936 5.1716 12.9593 5.25168 12.9981 5.34536C13.0369 5.43904 13.0471 5.54213 13.0273 5.64158C13.0075 5.74103 12.9587 5.83239 12.887 5.90409C12.8153 5.97579 12.7239 6.02462 12.6245 6.0444C12.525 6.06419 12.4219 6.05403 12.3283 6.01523C12.2346 5.97642 12.1545 5.91071 12.0982 5.8264C12.0418 5.74209 12.0118 5.64296 12.0118 5.54156C12.0119 5.40563 12.066 5.27532 12.1621 5.1792C12.2582 5.08309 12.3885 5.02902 12.5245 5.02886ZM8.8395 8.74346L10.5818 9.66856C10.6547 9.70731 10.7347 9.73107 10.817 9.73844C10.8993 9.74581 10.9822 9.73665 11.0609 9.71149C11.1396 9.68633 11.2125 9.64568 11.2752 9.59193C11.338 9.53819 11.3893 9.47243 11.4263 9.39854L12.5018 7.24752L13.5773 9.39854C13.6142 9.47243 13.6656 9.53817 13.7283 9.59192C13.7911 9.64565 13.8639 9.6863 13.9426 9.71146C14.0213 9.73662 14.1042 9.74579 14.1865 9.73842C14.2688 9.73105 14.3488 9.7073 14.4217 9.66856L16.164 8.74346L15.1515 11.241C15.1411 11.2669 15.1231 11.2891 15.1 11.3047C15.0768 11.3203 15.0495 11.3286 15.0216 11.3286H9.98188C9.95396 11.3286 9.92666 11.3203 9.90351 11.3047C9.88036 11.2892 9.86241 11.267 9.852 11.2411L8.8395 8.74346ZM21.744 21.5938L17.9486 15.0198C18.0569 14.9873 18.1696 14.9563 18.2842 14.9249C18.8831 14.7606 19.5024 14.5906 19.8685 14.0875C20.2309 13.5896 20.2024 12.9513 20.1747 12.3341C20.1565 11.9271 20.1393 11.5426 20.2354 11.2467C20.325 10.9708 20.5581 10.6809 20.805 10.3741C21.1813 9.90621 21.6078 9.37589 21.6078 8.73331C21.6078 8.09073 21.1813 7.56046 20.805 7.09259C20.5581 6.7857 20.325 6.49581 20.2354 6.21993C20.1393 5.92403 20.1565 5.53956 20.1747 5.13253C20.2024 4.51529 20.2309 3.87706 19.8685 3.37911C19.5024 2.87603 18.8831 2.70611 18.2843 2.5418C17.8944 2.43487 17.5261 2.3338 17.2796 2.1544C17.0382 1.97867 16.8312 1.6627 16.6121 1.32808C16.2854 0.829304 15.9151 0.263972 15.315 0.0691475C14.7395 -0.117718 14.1472 0.104499 13.5744 0.31944C13.187 0.464802 12.8211 0.602106 12.5 0.602106C12.1789 0.602106 11.813 0.464802 11.4257 0.31944C10.8529 0.104499 10.2606 -0.117718 9.68505 0.0691475C9.08495 0.263972 8.71469 0.829304 8.38803 1.32808C8.16889 1.6627 7.96196 1.97867 7.72045 2.1544C7.47397 2.33384 7.10571 2.43482 6.71586 2.5418C6.11694 2.70611 5.4977 2.87603 5.13154 3.37911C4.76913 3.87706 4.7977 4.51534 4.82533 5.13253C4.84355 5.53956 4.86074 5.92408 4.76469 6.21993C4.67509 6.49581 4.44194 6.7857 4.19511 7.09259C3.81879 7.56046 3.39228 8.09073 3.39228 8.73331C3.39228 9.37589 3.81879 9.90621 4.19511 10.3741C4.44194 10.681 4.67509 10.9708 4.76469 11.2468C4.86074 11.5426 4.84355 11.9271 4.82533 12.3342C4.7977 12.9514 4.76918 13.5896 5.13154 14.0875C5.4977 14.5906 6.11699 14.7606 6.71591 14.9249C6.83051 14.9563 6.94316 14.9873 7.05151 15.0198L3.2561 21.5938C3.20335 21.6852 3.17518 21.7886 3.17434 21.8941C3.1735 21.9996 3.20001 22.1035 3.2513 22.1957C3.30259 22.2879 3.3769 22.3652 3.46698 22.4202C3.55706 22.4751 3.65983 22.5057 3.76528 22.509L6.2621 22.5884L7.57924 24.711C7.63359 24.7995 7.70982 24.8726 7.80059 24.9231C7.89136 24.9737 7.99361 25 8.0975 24.9996L8.10756 24.9995C8.21313 24.9983 8.31655 24.9696 8.40756 24.9161C8.49857 24.8625 8.574 24.7862 8.62636 24.6945L12.5016 17.9878L16.3737 24.6944C16.426 24.7861 16.5015 24.8625 16.5925 24.916C16.6835 24.9695 16.7869 24.9983 16.8925 24.9995L16.9026 24.9996C17.0065 25 17.1087 24.9737 17.1995 24.9231C17.2902 24.8726 17.3664 24.7995 17.4208 24.711L18.738 22.5884L21.2348 22.509C21.3403 22.5057 21.443 22.4751 21.5331 22.4202C21.6232 22.3652 21.6975 22.2879 21.7488 22.1957C21.8001 22.1035 21.8266 21.9996 21.8257 21.8941C21.8249 21.7886 21.7967 21.6852 21.744 21.5938ZM8.09413 24.1517L6.84994 22.1467C6.79701 22.0612 6.72371 21.9901 6.6366 21.9398C6.54948 21.8895 6.45127 21.8615 6.35073 21.8585L3.99233 21.7835L7.72602 15.3165C7.96508 15.493 8.1706 15.8066 8.38803 16.1385C8.71469 16.6373 9.08495 17.2026 9.68505 17.3975C9.83315 17.445 9.98784 17.4686 10.1434 17.4676C10.5717 17.4676 11.0039 17.3054 11.4257 17.1472C11.5937 17.0841 11.7577 17.0227 11.9158 16.9732L12.0788 17.2556L8.09413 24.1517ZM12.5 16.1321C12.046 16.1321 11.5998 16.2995 11.1684 16.4614C10.6925 16.64 10.2431 16.8087 9.91122 16.7009C9.55639 16.5857 9.28652 16.1735 9.00073 15.7373C8.75517 15.3623 8.50121 14.9746 8.15146 14.72C7.79677 14.4619 7.34579 14.3382 6.90966 14.2186C6.41044 14.0815 5.93891 13.9522 5.72372 13.6566C5.5123 13.366 5.53403 12.8807 5.55702 12.3669C5.57734 11.9126 5.59838 11.4427 5.46132 11.0206C5.33017 10.6167 5.04325 10.26 4.76586 9.91505C4.43613 9.50508 4.1247 9.11793 4.1247 8.73331C4.1247 8.34869 4.43613 7.96158 4.76581 7.55167C5.04325 7.20675 5.33017 6.85001 5.46132 6.4461C5.59838 6.02398 5.57734 5.55416 5.55702 5.09981C5.53403 4.58594 5.5123 4.10064 5.72372 3.81011C5.93891 3.51446 6.41044 3.38507 6.90961 3.2481C7.34575 3.12847 7.79677 3.00474 8.15146 2.74664C8.50126 2.49205 8.75517 2.1043 9.00073 1.72935C9.28647 1.29307 9.55639 0.881013 9.91122 0.765778C10.2432 0.657966 10.6925 0.826667 11.1684 1.00518C11.5998 1.1671 12.046 1.33453 12.5 1.33453C12.954 1.33453 13.4002 1.1671 13.8317 1.00518C14.3076 0.826618 14.7571 0.658112 15.0889 0.765729C15.4437 0.880964 15.7136 1.29307 15.9994 1.7294C16.2449 2.1043 16.4989 2.49205 16.8486 2.74659C17.2033 3.00474 17.6543 3.12847 18.0905 3.24815C18.5896 3.38507 19.0612 3.51446 19.2764 3.81011C19.4878 4.10064 19.4661 4.58599 19.4431 5.09976C19.4227 5.55411 19.4017 6.02393 19.5388 6.4461C19.6699 6.85001 19.9568 7.2067 20.2343 7.55162C20.564 7.96158 20.8754 8.34874 20.8754 8.73331C20.8754 9.11788 20.564 9.50508 20.2343 9.915C19.9568 10.2599 19.6699 10.6166 19.5388 11.0205C19.4017 11.4427 19.4227 11.9125 19.4431 12.3669C19.4661 12.8807 19.4878 13.366 19.2764 13.6566C19.0612 13.9522 18.5896 14.0815 18.0904 14.2186C17.6543 14.3382 17.2033 14.4619 16.8486 14.72C16.4988 14.9746 16.2449 15.3623 15.9994 15.7373C15.7136 16.1736 15.4437 16.5857 15.0889 16.7009C14.757 16.8086 14.3076 16.64 13.8317 16.4614C13.4002 16.2995 12.954 16.1321 12.5 16.1321ZM18.6494 21.8585C18.5488 21.8615 18.4506 21.8895 18.3635 21.9398C18.2764 21.9901 18.2031 22.0612 18.1501 22.1467L16.906 24.1516L12.7088 16.8819C12.9764 16.9231 13.2686 17.0325 13.5744 17.1472C14.1472 17.3621 14.7394 17.5843 15.315 17.3975C15.9151 17.2027 16.2854 16.6373 16.6121 16.1385C16.8295 15.8066 17.035 15.493 17.2741 15.3165L21.0078 21.7835L18.6494 21.8585Z" fill="#272A33"/>
</g>
<defs>
<clipPath id="clip0_1111_525">
<rect width="25" height="25" fill="white"/>
</clipPath>
</defs>
</svg>
