<svg width="28" height="46" viewBox="0 0 28 46" fill="none" xmlns="http://www.w3.org/2000/svg">
<path d="M20.1875 19.75L26.4375 26" stroke="#3D3D3D" stroke-width="2" stroke-linecap="round" stroke-linejoin="round"/>
<path d="M1.4375 11.7143C1.4375 17.6316 6.23445 22.4286 12.1518 22.4286C15.1155 22.4286 17.7984 21.2252 19.738 19.2804C21.6711 17.3423 22.8661 14.6679 22.8661 11.7143C22.8661 5.79695 18.0691 1 12.1518 1C6.23445 1 1.4375 5.79695 1.4375 11.7143Z" stroke="#3D3D3D" stroke-width="2" stroke-linecap="round" stroke-linejoin="round"/>
<path d="M3.9175 41.5C3.9175 40.8133 4.0675 40.2 4.3675 39.66C4.6675 39.1133 5.0775 38.69 5.5975 38.39C6.1175 38.0833 6.6975 37.93 7.3375 37.93C8.1175 37.93 8.78417 38.1167 9.3375 38.49C9.8975 38.8567 10.3042 39.3767 10.5575 40.05H9.7375C9.5375 39.5767 9.23083 39.2067 8.8175 38.94C8.41083 38.6733 7.9175 38.54 7.3375 38.54C6.82417 38.54 6.36083 38.66 5.9475 38.9C5.54083 39.14 5.22083 39.4867 4.9875 39.94C4.75417 40.3867 4.6375 40.9067 4.6375 41.5C4.6375 42.0933 4.75417 42.6133 4.9875 43.06C5.22083 43.5067 5.54083 43.85 5.9475 44.09C6.36083 44.33 6.82417 44.45 7.3375 44.45C7.9175 44.45 8.41083 44.32 8.8175 44.06C9.23083 43.7933 9.5375 43.4267 9.7375 42.96H10.5575C10.3042 43.6267 9.8975 44.1433 9.3375 44.51C8.7775 44.8767 8.11083 45.06 7.3375 45.06C6.6975 45.06 6.1175 44.91 5.5975 44.61C5.0775 44.3033 4.6675 43.88 4.3675 43.34C4.0675 42.8 3.9175 42.1867 3.9175 41.5ZM11.6323 42.26C11.6323 41.7 11.7423 41.21 11.9623 40.79C12.189 40.3633 12.499 40.0367 12.8923 39.81C13.2923 39.5767 13.7423 39.46 14.2423 39.46C14.7623 39.46 15.209 39.58 15.5823 39.82C15.9623 40.06 16.2357 40.3667 16.4023 40.74V39.54H17.1023V45H16.4023V43.79C16.229 44.1633 15.9523 44.4733 15.5723 44.72C15.199 44.96 14.7523 45.08 14.2323 45.08C13.739 45.08 13.2923 44.9633 12.8923 44.73C12.499 44.4967 12.189 44.1667 11.9623 43.74C11.7423 43.3133 11.6323 42.82 11.6323 42.26ZM16.4023 42.27C16.4023 41.83 16.3123 41.4433 16.1323 41.11C15.9523 40.7767 15.7057 40.52 15.3923 40.34C15.0857 40.16 14.7457 40.07 14.3723 40.07C13.9857 40.07 13.639 40.1567 13.3323 40.33C13.0257 40.5033 12.7823 40.7567 12.6023 41.09C12.429 41.4167 12.3423 41.8067 12.3423 42.26C12.3423 42.7067 12.429 43.1 12.6023 43.44C12.7823 43.7733 13.0257 44.03 13.3323 44.21C13.639 44.3833 13.9857 44.47 14.3723 44.47C14.7457 44.47 15.0857 44.38 15.3923 44.2C15.7057 44.02 15.9523 43.7633 16.1323 43.43C16.3123 43.0967 16.4023 42.71 16.4023 42.27ZM19.4004 40.51C19.5537 40.17 19.7871 39.9067 20.1004 39.72C20.4204 39.5333 20.8104 39.44 21.2704 39.44V40.17H21.0804C20.5737 40.17 20.1671 40.3067 19.8604 40.58C19.5537 40.8533 19.4004 41.31 19.4004 41.95V45H18.7004V39.54H19.4004V40.51ZM22.6734 38.51C22.5334 38.51 22.4134 38.46 22.3134 38.36C22.2134 38.26 22.1634 38.1367 22.1634 37.99C22.1634 37.8433 22.2134 37.7233 22.3134 37.63C22.4134 37.53 22.5334 37.48 22.6734 37.48C22.8134 37.48 22.9334 37.53 23.0334 37.63C23.1334 37.7233 23.1834 37.8433 23.1834 37.99C23.1834 38.1367 23.1334 38.26 23.0334 38.36C22.9334 38.46 22.8134 38.51 22.6734 38.51ZM23.0234 39.54V45H22.3234V39.54H23.0234Z" fill="#3D3D3D"/>
</svg>
