<svg width="59" height="52" viewBox="0 0 59 52" fill="none" xmlns="http://www.w3.org/2000/svg">
<path d="M29.4999 19.7003C31.8196 19.7003 33.6999 17.82 33.6999 15.5003C33.6999 13.1806 31.8196 11.3003 29.4999 11.3003C27.1803 11.3003 25.2999 13.1806 25.2999 15.5003C25.2999 17.82 27.1803 19.7003 29.4999 19.7003Z" stroke="#3D3D3D" stroke-width="2" stroke-linecap="round" stroke-linejoin="round"/>
<path d="M40.1714 13.2536L38.6346 9.54272L40.7 7.1L37.9 4.3L35.4706 6.37613L31.6809 4.81764L30.8094 1.5H28.0734L27.1887 4.86158L23.4862 6.42234L21.1 4.3L18.3 7.1L20.3347 9.60439L18.8215 13.3248L15.5 14.1V16.9L18.8616 17.8177L20.422 21.5196L18.3 23.9L21.1 26.7L23.6076 24.6564L27.2558 26.1572L28.1 29.5H30.9L31.7463 26.1585L35.4571 24.6217C36.0757 25.0638 37.9 26.7 37.9 26.7L40.7 23.9L38.6223 21.4492L40.1595 17.7372L43.4999 16.8681L43.5 14.1L40.1714 13.2536Z" stroke="#3D3D3D" stroke-width="2" stroke-linecap="round" stroke-linejoin="round"/>
<path d="M5.27 43.52C5.27 44.12 5.07333 44.6033 4.68 44.97C4.28667 45.3367 3.69667 45.52 2.91 45.52H1.5V48.5H0.8V41.51H2.91C3.69 41.51 4.27667 41.6933 4.67 42.06C5.07 42.4267 5.27 42.9133 5.27 43.52ZM2.91 44.92C4.00333 44.92 4.55 44.4533 4.55 43.52C4.55 43.0533 4.42 42.7 4.16 42.46C3.9 42.22 3.48333 42.1 2.91 42.1H1.5V44.92H2.91ZM11.3845 45.49C11.3845 45.73 11.3779 45.9133 11.3645 46.04H6.83453C6.85453 46.4533 6.95453 46.8067 7.13453 47.1C7.31453 47.3933 7.5512 47.6167 7.84453 47.77C8.13786 47.9167 8.45786 47.99 8.80453 47.99C9.25786 47.99 9.63786 47.88 9.94453 47.66C10.2579 47.44 10.4645 47.1433 10.5645 46.77H11.3045C11.1712 47.3033 10.8845 47.74 10.4445 48.08C10.0112 48.4133 9.46453 48.58 8.80453 48.58C8.2912 48.58 7.8312 48.4667 7.42453 48.24C7.01786 48.0067 6.69786 47.68 6.46453 47.26C6.23786 46.8333 6.12453 46.3367 6.12453 45.77C6.12453 45.2033 6.23786 44.7067 6.46453 44.28C6.6912 43.8533 7.00786 43.5267 7.41453 43.3C7.8212 43.0733 8.28453 42.96 8.80453 42.96C9.32453 42.96 9.77786 43.0733 10.1645 43.3C10.5579 43.5267 10.8579 43.8333 11.0645 44.22C11.2779 44.6 11.3845 45.0233 11.3845 45.49ZM10.6745 45.47C10.6812 45.0633 10.5979 44.7167 10.4245 44.43C10.2579 44.1433 10.0279 43.9267 9.73453 43.78C9.4412 43.6333 9.1212 43.56 8.77453 43.56C8.25453 43.56 7.8112 43.7267 7.44453 44.06C7.07786 44.3933 6.87453 44.8633 6.83453 45.47H10.6745ZM15.2252 42.94C15.8786 42.94 16.4119 43.1433 16.8252 43.55C17.2386 43.95 17.4452 44.5333 17.4452 45.3V48.5H16.7552V45.38C16.7552 44.7867 16.6052 44.3333 16.3052 44.02C16.0119 43.7067 15.6086 43.55 15.0952 43.55C14.5686 43.55 14.1486 43.7167 13.8352 44.05C13.5219 44.3833 13.3652 44.8733 13.3652 45.52V48.5H12.6652V43.04H13.3652V43.97C13.5386 43.6367 13.7886 43.3833 14.1152 43.21C14.4419 43.03 14.8119 42.94 15.2252 42.94ZM21.2834 42.96C21.7967 42.96 22.2434 43.08 22.6234 43.32C23.0034 43.56 23.2767 43.8633 23.4434 44.23V43.04H24.1434V48.64C24.1434 49.14 24.0334 49.5833 23.8134 49.97C23.6 50.3567 23.3 50.6533 22.9134 50.86C22.5267 51.0733 22.0867 51.18 21.5934 51.18C20.8934 51.18 20.31 51.0133 19.8434 50.68C19.3834 50.3467 19.0967 49.8933 18.9834 49.32H19.6734C19.7934 49.7 20.02 50.0033 20.3534 50.23C20.6934 50.4567 21.1067 50.57 21.5934 50.57C21.9467 50.57 22.2634 50.4933 22.5434 50.34C22.8234 50.1933 23.0434 49.9733 23.2034 49.68C23.3634 49.3867 23.4434 49.04 23.4434 48.64V47.29C23.27 47.6633 22.9934 47.9733 22.6134 48.22C22.24 48.46 21.7967 48.58 21.2834 48.58C20.7834 48.58 20.3334 48.4633 19.9334 48.23C19.54 47.9967 19.23 47.6667 19.0034 47.24C18.7834 46.8133 18.6734 46.32 18.6734 45.76C18.6734 45.2 18.7834 44.71 19.0034 44.29C19.23 43.8633 19.54 43.5367 19.9334 43.31C20.3334 43.0767 20.7834 42.96 21.2834 42.96ZM23.4434 45.77C23.4434 45.33 23.3534 44.9433 23.1734 44.61C22.9934 44.2767 22.7467 44.02 22.4334 43.84C22.1267 43.66 21.7867 43.57 21.4134 43.57C21.0267 43.57 20.68 43.6567 20.3734 43.83C20.0667 44.0033 19.8234 44.2567 19.6434 44.59C19.47 44.9167 19.3834 45.3067 19.3834 45.76C19.3834 46.2067 19.47 46.6 19.6434 46.94C19.8234 47.2733 20.0667 47.53 20.3734 47.71C20.68 47.8833 21.0267 47.97 21.4134 47.97C21.7867 47.97 22.1267 47.88 22.4334 47.7C22.7467 47.52 22.9934 47.2633 23.1734 46.93C23.3534 46.5967 23.4434 46.21 23.4434 45.77ZM25.4214 45.76C25.4214 45.2 25.5314 44.71 25.7514 44.29C25.9781 43.8633 26.2881 43.5367 26.6814 43.31C27.0814 43.0767 27.5314 42.96 28.0314 42.96C28.5514 42.96 28.9981 43.08 29.3714 43.32C29.7514 43.56 30.0247 43.8667 30.1914 44.24V43.04H30.8914V48.5H30.1914V47.29C30.0181 47.6633 29.7414 47.9733 29.3614 48.22C28.9881 48.46 28.5414 48.58 28.0214 48.58C27.5281 48.58 27.0814 48.4633 26.6814 48.23C26.2881 47.9967 25.9781 47.6667 25.7514 47.24C25.5314 46.8133 25.4214 46.32 25.4214 45.76ZM30.1914 45.77C30.1914 45.33 30.1014 44.9433 29.9214 44.61C29.7414 44.2767 29.4947 44.02 29.1814 43.84C28.8747 43.66 28.5347 43.57 28.1614 43.57C27.7747 43.57 27.4281 43.6567 27.1214 43.83C26.8147 44.0033 26.5714 44.2567 26.3914 44.59C26.2181 44.9167 26.1314 45.3067 26.1314 45.76C26.1314 46.2067 26.2181 46.6 26.3914 46.94C26.5714 47.2733 26.8147 47.53 27.1214 47.71C27.4281 47.8833 27.7747 47.97 28.1614 47.97C28.5347 47.97 28.8747 47.88 29.1814 47.7C29.4947 47.52 29.7414 47.2633 29.9214 46.93C30.1014 46.5967 30.1914 46.21 30.1914 45.77ZM33.3995 43.63V47.02C33.3995 47.3533 33.4628 47.5833 33.5895 47.71C33.7161 47.8367 33.9395 47.9 34.2595 47.9H34.8995V48.5H34.1495C33.6561 48.5 33.2895 48.3867 33.0495 48.16C32.8095 47.9267 32.6895 47.5467 32.6895 47.02V43.63H31.9295V43.04H32.6895V41.67H33.3995V43.04H34.8995V43.63H33.3995ZM40.7839 43.04V48.5H40.0839V47.54C39.9239 47.88 39.6772 48.14 39.3439 48.32C39.0106 48.5 38.6372 48.59 38.2239 48.59C37.5706 48.59 37.0372 48.39 36.6239 47.99C36.2106 47.5833 36.0039 46.9967 36.0039 46.23V43.04H36.6939V46.15C36.6939 46.7433 36.8406 47.1967 37.1339 47.51C37.4339 47.8233 37.8406 47.98 38.3539 47.98C38.8806 47.98 39.3006 47.8133 39.6139 47.48C39.9272 47.1467 40.0839 46.6567 40.0839 46.01V43.04H40.7839ZM43.082 44.01C43.2354 43.67 43.4687 43.4067 43.782 43.22C44.102 43.0333 44.492 42.94 44.952 42.94V43.67H44.762C44.2554 43.67 43.8487 43.8067 43.542 44.08C43.2354 44.3533 43.082 44.81 43.082 45.45V48.5H42.382V43.04H43.082V44.01ZM45.6851 45.76C45.6851 45.2 45.7951 44.71 46.0151 44.29C46.2417 43.8633 46.5517 43.5367 46.9451 43.31C47.3451 43.0767 47.7951 42.96 48.2951 42.96C48.8151 42.96 49.2617 43.08 49.6351 43.32C50.0151 43.56 50.2884 43.8667 50.4551 44.24V43.04H51.1551V48.5H50.4551V47.29C50.2817 47.6633 50.0051 47.9733 49.6251 48.22C49.2517 48.46 48.8051 48.58 48.2851 48.58C47.7917 48.58 47.3451 48.4633 46.9451 48.23C46.5517 47.9967 46.2417 47.6667 46.0151 47.24C45.7951 46.8133 45.6851 46.32 45.6851 45.76ZM50.4551 45.77C50.4551 45.33 50.3651 44.9433 50.1851 44.61C50.0051 44.2767 49.7584 44.02 49.4451 43.84C49.1384 43.66 48.7984 43.57 48.4251 43.57C48.0384 43.57 47.6917 43.6567 47.3851 43.83C47.0784 44.0033 46.8351 44.2567 46.6551 44.59C46.4817 44.9167 46.3951 45.3067 46.3951 45.76C46.3951 46.2067 46.4817 46.6 46.6551 46.94C46.8351 47.2733 47.0784 47.53 47.3851 47.71C47.6917 47.8833 48.0384 47.97 48.4251 47.97C48.7984 47.97 49.1384 47.88 49.4451 47.7C49.7584 47.52 50.0051 47.2633 50.1851 46.93C50.3651 46.5967 50.4551 46.21 50.4551 45.77ZM55.3131 42.94C55.9665 42.94 56.4998 43.1433 56.9131 43.55C57.3265 43.95 57.5331 44.5333 57.5331 45.3V48.5H56.8431V45.38C56.8431 44.7867 56.6931 44.3333 56.3931 44.02C56.0998 43.7067 55.6965 43.55 55.1831 43.55C54.6565 43.55 54.2365 43.7167 53.9231 44.05C53.6098 44.3833 53.4531 44.8733 53.4531 45.52V48.5H52.7531V43.04H53.4531V43.97C53.6265 43.6367 53.8765 43.3833 54.2031 43.21C54.5298 43.03 54.8998 42.94 55.3131 42.94Z" fill="#3D3D3D"/>
</svg>
