<svg width="100" height="100" viewBox="0 0 100 100" fill="none" xmlns="http://www.w3.org/2000/svg">
<path d="M49.9813 99.9625C77.5851 99.9625 99.9625 77.5851 99.9625 49.9813C99.9625 22.3774 77.5851 0 49.9813 0C22.3774 0 0 22.3774 0 49.9813C0 77.5851 22.3774 99.9625 49.9813 99.9625Z" fill="#00AB94"/>
<path fill-rule="evenodd" clip-rule="evenodd" d="M72.3659 82.0023H27.634C27.1466 82.0023 26.7716 81.6274 26.7716 81.1399V25.7968C26.7716 25.3094 27.1466 24.9344 27.634 24.9344H42.6321V28.084C42.6321 29.0964 43.457 29.9588 44.5069 29.9588H55.493C56.5054 29.9588 57.3678 29.0964 57.3678 28.084V24.9344H72.3659C72.8533 24.9344 73.2283 25.3094 73.2283 25.7968V81.1399C73.2283 81.6274 72.8533 82.0023 72.3659 82.0023ZM46.2692 52.756C45.3693 54.3308 44.1694 55.3056 42.2572 55.3056C40.3824 55.3056 39.1826 54.3308 38.2827 52.756L38.1702 52.5685H37.6078C35.433 52.5685 32.9583 53.6933 32.2834 55.9056C32.1709 56.243 32.1334 56.618 32.1334 56.9554V61.3424H36.0704V56.5055C36.0704 56.243 36.2954 56.0181 36.5579 56.0181C36.8203 56.0181 37.0453 56.243 37.0453 56.5055V61.3424H47.3565V56.5055C47.3565 56.243 47.5815 56.0181 47.844 56.0181C48.1064 56.0181 48.3314 56.243 48.3314 56.5055V61.3424H52.2684V56.9554C52.2684 56.618 52.2309 56.243 52.1184 55.9056C51.4435 53.6933 48.9688 52.5685 46.7941 52.5685H46.3817L46.2692 52.756ZM46.5316 22.6097V18.8602C46.5316 18.3728 46.9441 17.9978 47.394 17.9978H52.5684C53.0558 17.9978 53.4308 18.3728 53.4308 18.8602V22.6097H55.493C55.9805 22.6097 56.3554 22.9847 56.3554 23.4721V28.084C56.3554 28.5715 55.9805 28.9464 55.493 28.9464H44.5069C44.0194 28.9464 43.6445 28.5715 43.6445 28.084V23.4721C43.6445 22.9847 44.0194 22.6097 44.5069 22.6097H46.5316ZM51.7435 22.6097V19.6851H48.2564V22.6097H51.7435ZM68.1664 62.3173C68.4289 62.3173 68.6539 62.0923 68.6539 61.8298C68.6539 61.5674 68.4289 61.3424 68.1664 61.3424H55.6805C55.418 61.3424 55.1931 61.5674 55.1931 61.8298C55.1931 62.0923 55.418 62.3173 55.6805 62.3173H68.1664ZM68.1664 56.7305C68.4289 56.7305 68.6539 56.543 68.6539 56.2805C68.6539 56.0181 68.4289 55.7931 68.1664 55.7931H55.6805C55.418 55.7931 55.1931 56.0181 55.1931 56.2805C55.1931 56.543 55.418 56.7305 55.6805 56.7305H68.1664ZM68.1664 51.1812C68.4289 51.1812 68.6539 50.9562 68.6539 50.6937C68.6539 50.4313 68.4289 50.2063 68.1664 50.2063H55.6805C55.418 50.2063 55.1931 50.4313 55.1931 50.6937C55.1931 50.9562 55.418 51.1812 55.6805 51.1812H68.1664ZM68.1664 45.5944C68.4289 45.5944 68.6539 45.4069 68.6539 45.1444C68.6539 44.8444 68.4289 44.657 68.1664 44.657H55.6805C55.418 44.657 55.1931 44.8444 55.1931 45.1444C55.1931 45.4069 55.418 45.5944 55.6805 45.5944H68.1664ZM68.1664 40.045C68.4289 40.045 68.6539 39.8201 68.6539 39.5576C68.6539 39.2951 68.4289 39.0702 68.1664 39.0702H55.6805C55.418 39.0702 55.1931 39.2951 55.1931 39.5576C55.1931 39.8201 55.418 40.045 55.6805 40.045H68.1664ZM68.3164 78.0278C68.5789 78.0278 68.8039 77.8028 68.8039 77.5404C68.8039 77.2779 68.6164 77.0529 68.3164 77.0529H31.871C31.6085 77.0529 31.3835 77.2779 31.3835 77.5404C31.3835 77.8028 31.6085 78.0278 31.871 78.0278H68.3164ZM68.3164 72.9284C68.5789 72.9284 68.8039 72.7035 68.8039 72.441C68.8039 72.1785 68.6164 71.9536 68.3164 71.9536H31.871C31.6085 71.9536 31.3835 72.1785 31.3835 72.441C31.3835 72.7035 31.6085 72.9284 31.871 72.9284H68.3164ZM68.3164 67.8291C68.5789 67.8291 68.8039 67.6041 68.8039 67.3416C68.8039 67.0792 68.6164 66.8917 68.3164 66.8917H31.871C31.6085 66.8917 31.3835 67.0792 31.3835 67.3416C31.3835 67.6041 31.6085 67.8291 31.871 67.8291H68.3164ZM42.2572 50.2063C42.9696 50.2063 43.607 50.0563 44.2444 49.8313L45.5193 52.0435L45.3693 52.2685C44.6569 53.5434 43.7945 54.2933 42.2572 54.2933C40.7574 54.2933 39.895 53.5434 39.1451 52.2685L39.0326 52.0435L40.3074 49.8313C40.9073 50.0563 41.5823 50.2063 42.2572 50.2063ZM46.3067 51.5561L45.0693 49.4189C46.6816 48.444 47.7315 46.7192 47.7315 44.732V43.7946C47.7315 43.3446 47.6565 42.8947 47.5815 42.4822C48.1439 40.12 47.1691 37.3829 45.5568 35.6206C44.5444 34.5707 43.0821 33.6708 41.5823 33.9708C41.3948 34.0083 41.2448 34.1583 41.2073 34.3083C41.2073 34.3833 41.1698 34.4208 41.2073 34.4957L41.2448 34.9832L40.7574 34.9082C40.1574 34.7957 39.5575 34.7957 38.9576 34.9832C38.7701 35.0207 38.6576 35.1707 38.6201 35.3581C38.6201 35.5081 38.6576 35.6206 38.7326 35.7331L39.0326 36.0705L38.6576 36.2955C36.4829 37.6453 36.4079 40.2325 36.9703 42.4822C36.8578 42.9322 36.8203 43.3446 36.8203 43.7946V44.732C36.8203 46.7192 37.8702 48.444 39.445 49.4189L38.2452 51.5561H37.6078C34.9831 51.5561 32.1334 52.9809 31.346 55.6431C31.1961 56.0555 31.1211 56.5055 31.1211 56.9554V62.3548H48.3689H53.2808V56.9554C53.2808 56.5055 53.2058 56.0555 53.0933 55.6056C52.2684 52.9809 49.4188 51.5561 46.7941 51.5561H46.3067ZM46.7566 40.72C45.7817 39.2951 44.1319 38.3578 42.2572 38.3578C40.3449 38.3578 38.6201 39.3701 37.6452 40.9074C37.5703 39.9326 37.6452 38.8827 38.1702 38.0578C38.4701 37.5704 38.9951 37.0829 39.5575 36.8954C39.8575 36.8205 40.1574 36.633 40.2324 36.2955C40.2324 36.258 40.2324 36.2205 40.2324 36.2205V35.7331L40.6824 35.8456C41.1698 35.9956 41.8072 36.258 42.2197 36.558C42.3697 36.6705 42.5571 36.708 42.7071 36.633C42.8571 36.558 42.9696 36.408 43.0071 36.258C43.0071 36.033 42.9696 35.8456 42.9321 35.6581L42.7071 34.8332L43.457 35.2082C43.982 35.4706 44.4694 35.8456 44.8443 36.2955C45.9317 37.4204 46.6816 39.1077 46.7566 40.72ZM42.2572 39.2951C44.7694 39.2951 46.7941 41.3199 46.7941 43.7946V44.732C46.7941 46.4942 45.7442 48.0315 44.2819 48.7815C44.2444 48.7815 44.2069 48.819 44.2069 48.819H44.1694C43.607 49.0814 42.9696 49.2314 42.2572 49.2314C41.5823 49.2314 40.9448 49.0814 40.3824 48.819H40.3449C40.3449 48.819 40.3074 48.7815 40.2699 48.7815C38.8076 48.0315 37.7577 46.4942 37.7577 44.732V43.7946C37.7577 43.4196 37.8327 43.0072 37.9452 42.6322V42.5947C38.4701 40.6825 40.1949 39.2951 42.2572 39.2951Z" fill="white"/>
</svg>
