<svg width="18" height="18" viewBox="0 0 18 18" fill="none" xmlns="http://www.w3.org/2000/svg">
<g clip-path="url(#clip0_965_866)">
<path d="M6.77521 8.7625C8.78043 8.7625 10.5012 6.18853 10.5012 4.07889C10.5012 2.03051 8.82719 0.360107 6.77521 0.360107C4.71962 0.360107 3.04566 2.03051 3.04566 4.07889C3.04566 6.18853 4.76647 8.7625 6.77521 8.7625ZM8.88845 12.5749C8.88845 11.6245 9.16926 10.7425 9.65521 10.0009C9.03241 9.74889 8.36277 9.61934 7.67881 9.61934H5.67368C2.78999 9.61934 0.457193 11.8657 0.359985 14.7457V17.2801C0.359985 17.4781 0.522057 17.6401 0.719985 17.6401H12.6324C12.834 17.6401 12.9924 17.4781 12.9924 17.2801V17.2585C10.6776 16.9489 8.88845 14.9653 8.88845 12.5749Z" fill="#F6F6F6"/>
<path d="M13.6261 8.56787C11.4121 8.56787 9.60852 10.3679 9.60852 12.5747C9.60852 14.7851 11.4121 16.5815 13.6261 16.5815C15.8401 16.5815 17.6401 14.7851 17.6401 12.5747C17.6401 10.3679 15.8401 8.56787 13.6261 8.56787ZM15.5166 11.6783L13.1007 14.0943C13.0304 14.1646 12.9383 14.1997 12.8461 14.1997C12.754 14.1997 12.6619 14.1646 12.5916 14.0943L11.7338 13.2364C11.5932 13.0958 11.5932 12.868 11.7338 12.7274C11.8744 12.5868 12.1022 12.5868 12.2429 12.7274L12.8461 13.3307L15.0076 11.1693C15.1482 11.0286 15.376 11.0286 15.5166 11.1693C15.6572 11.3099 15.6572 11.5377 15.5166 11.6783Z" fill="#F6F6F6"/>
</g>
<defs>
<clipPath id="clip0_965_866">
<rect width="18" height="18" fill="white"/>
</clipPath>
</defs>
</svg>
